<?xml version="1.0" encoding="utf-8"?>
<!-- Generator: Adobe Illustrator 22.0.0, SVG Export Plug-In . SVG Version: 6.00 Build 0)  -->
<svg version="1.1" xmlns="http://www.w3.org/2000/svg" xmlns:xlink="http://www.w3.org/1999/xlink" x="0px" y="0px"
	 viewBox="0 0 208.7 189.4" style="enable-background:new 0 0 208.7 189.4;" xml:space="preserve">
<style type="text/css">
	.st0circles{fill:#3B484A;}
	.st1circles{fill:url(#SVGID_7_);}
	.st2circles{fill:url(#SVGID_10_);}
	.st3circles{fill:url(#SVGID_13_);}
	.st4circles{fill:url(#SVGID_16_);}
	.st5circles{fill:url(#SVGID_17_);}
	.st6circles{fill:url(#SVGID_18_);}
	.st7circles{fill:#FFFFFF;}
	.st8circles{fill:none;stroke:#FFFFFF;stroke-miterlimit:10;}
	.st9circles{fill:#E6E6E6;}
	.st10circles{stroke:#000000;stroke-miterlimit:10;}
	.circle-group{opacity:0.5;}
	.circle-group:hover{opacity:1;transition:0.5s}
</style>
<g id="fondo">
</g>
<g id="Capa_2">
	<g class="circle-group">
		<path class="st10circles" d="M96.8,44.2c-2.4-24.3-23-43.3-48-43.3c-25,0-45.5,19-48,43.3H96.8z"/>
		<path class="st10circles" d="M48.9,97.2c26.6,0,48.2-21.6,48.2-48.2H0.7C0.7,75.6,22.2,97.2,48.9,97.2z"/>
	</g>
	<g class="circle-group">
		<path class="st10circles" d="M156.2,1c-24.9,1.9-44.5,22.7-44.5,48s19.6,46.1,44.5,48V1z"/>
		<path class="st10circles" d="M161.2,0.9v96.3c26-0.7,46.9-22,46.9-48.2S187.2,1.6,161.2,0.9z"/>
	</g>
	<g class="circle-group">
		<path class="st10circles" d="M148,126.4c-6-19.8-24.4-34.2-46.1-34.2c-21.7,0-40.1,14.4-46.1,34.2H148z"/>
		<path class="st10circles" d="M53.7,140.4c0,1.5,0.1,3,0.2,4.5h96c0.1-1.5,0.2-3,0.2-4.5c0-0.6,0-1.2,0-1.8H53.7
			C53.7,139.3,53.7,139.8,53.7,140.4z"/>
		<path class="st10circles" d="M54.3,147.9c3.6,23.1,23.5,40.7,47.6,40.7s44-17.6,47.6-40.7H54.3z"/>
		<path class="st10circles" d="M54.9,129.4c-0.5,2-0.8,4.1-1,6.3h95.9c-0.2-2.1-0.6-4.2-1-6.3H54.9z"/>
	</g>
</g>
</svg>
