<?xml version="1.0" encoding="utf-8"?>
<!-- Generator: Adobe Illustrator 25.3.0, SVG Export Plug-In . SVG Version: 6.00 Build 0)  -->
<svg version="1.1" id="Capa_1" xmlns="http://www.w3.org/2000/svg" xmlns:xlink="http://www.w3.org/1999/xlink" x="0px" y="0px"
	 viewBox="0 0 283.02 283.02" style="enable-background:new 0 0 283.02 283.02;" xml:space="preserve">
<g>
	<g>
		<path d="M141.51,19.29c-67.5,0-122.22,54.72-122.22,122.22s54.72,122.22,122.22,122.22s122.22-54.72,122.22-122.22
			S209.01,19.29,141.51,19.29z M210.79,191.58c5.31,5.31,5.31,13.91,0,19.22c-5.31,5.31-13.91,5.31-19.22,0l-50.07-50.07
			l-50.07,50.07c-5.31,5.31-13.91,5.31-19.22,0s-5.31-13.91,0-19.22l50.07-50.07L72.22,91.44c-5.31-5.31-5.31-13.91,0-19.22
			s13.91-5.31,19.22,0l50.07,50.07l50.07-50.07c5.31-5.31,13.91-5.31,19.22,0s5.31,13.91,0,19.22l-50.07,50.07L210.79,191.58z"/>
	</g>
	<path d="M141.51,0C63.36,0,0,63.36,0,141.51s63.36,141.51,141.51,141.51s141.51-63.36,141.51-141.51S219.66,0,141.51,0z
		 M141.51,275.18c-73.82,0-133.67-59.84-133.67-133.67S67.69,7.84,141.51,7.84s133.67,59.84,133.67,133.67
		S215.33,275.18,141.51,275.18z"/>
</g>
</svg>
