<?xml version="1.0" encoding="utf-8"?>
<!-- Generator: Adobe Illustrator 25.3.0, SVG Export Plug-In . SVG Version: 6.00 Build 0)  -->
<svg version="1.1" id="Capa_1" xmlns="http://www.w3.org/2000/svg" xmlns:xlink="http://www.w3.org/1999/xlink" x="0px" y="0px"
	 viewBox="0 0 139.3 141.3" style="enable-background:new 0 0 139.3 141.3;" xml:space="preserve">
<g>
	<path d="M70.07,54.64c-8.9,0-16.15,7.24-16.15,16.15c0,8.9,7.24,16.15,16.15,16.15c8.9,0,16.15-7.24,16.15-16.15
		C86.22,61.89,78.97,54.64,70.07,54.64z"/>
	<path d="M90.08,29.24H49.22c-11.64,0-21.12,9.47-21.12,21.12v40.87c0,11.64,9.47,21.12,21.12,21.12h40.87
		c11.64,0,21.12-9.47,21.12-21.12V50.36C111.2,38.71,101.73,29.24,90.08,29.24z M70.07,96c-13.9,0-25.21-11.31-25.21-25.21
		c0-13.9,11.31-25.21,25.21-25.21c13.9,0,25.21,11.31,25.21,25.21C95.28,84.69,83.97,96,70.07,96z M96.75,49.89c-3.31,0-6-2.69-6-6
		s2.69-6,6-6c3.31,0,6,2.69,6,6S100.06,49.89,96.75,49.89z"/>
	<path d="M104.04,1H35.26C15.79,1,0,16.79,0,36.26v68.78c0,19.47,15.79,35.26,35.26,35.26h68.78c19.47,0,35.26-15.79,35.26-35.26
		V36.26C139.3,16.79,123.51,1,104.04,1z M120.83,91.23c0,16.95-13.79,30.75-30.75,30.75H49.22c-16.95,0-30.75-13.79-30.75-30.75
		V50.36c0-16.95,13.79-30.75,30.75-30.75h40.87c16.95,0,30.75,13.79,30.75,30.75V91.23z"/>
</g>
</svg>
