<?xml version="1.0" encoding="utf-8"?>
<!-- Generator: Adobe Illustrator 25.3.0, SVG Export Plug-In . SVG Version: 6.00 Build 0)  -->
<svg version="1.1" id="Capa_1" xmlns="http://www.w3.org/2000/svg" xmlns:xlink="http://www.w3.org/1999/xlink" x="0px" y="0px"
	 viewBox="0 0 1080 1080" style="enable-background:new 0 0 1080 1080;" xml:space="preserve">
<path d="M806.6,0.08H273.39C122.44,0.08,0.07,122.44,0.07,273.4V806.6c0,150.95,122.37,273.32,273.32,273.32h183.27V694.17H321.24
	V540h135.42V422.49c0-133.67,79.62-207.51,201.45-207.51c58.36,0,119.39,10.42,119.39,10.42v131.25h-67.26
	c-66.25,0-86.92,41.11-86.92,83.29V540h147.92l-23.65,154.17H623.33v385.69l0.19,0.06H806.6c150.95,0,273.32-122.37,273.32-273.32
	V273.4C1079.93,122.44,957.56,0.08,806.6,0.08z"/>
</svg>
