<?xml version="1.0" encoding="utf-8"?>
<!-- Generator: Adobe Illustrator 22.0.0, SVG Export Plug-In . SVG Version: 6.00 Build 0)  -->
<svg version="1.1" id="Capa_1" xmlns="http://www.w3.org/2000/svg" xmlns:xlink="http://www.w3.org/1999/xlink" x="0px" y="0px"
	 viewBox="0 0 139.3 141.3" style="enable-background:new 0 0 139.3 141.3;" xml:space="preserve">
<style type="text/css">
	.st0{fill:#565656;}
	.st1{fill:#FFFFFF;}
</style>
<g>
	<path d="M-116.3,18c-6.8,0-12.3,5.5-12.3,12.3c0,6.8,5.5,12.3,12.3,12.3s12.3-5.5,12.3-12.3C-104,23.5-109.5,18-116.3,18z"/>
	<path d="M-101.1-1.4h-31.2c-8.9,0-16.1,7.2-16.1,16.1v31.2c0,8.9,7.2,16.1,16.1,16.1h31.2c8.9,0,16.1-7.2,16.1-16.1V14.7
		C-85,5.8-92.2-1.4-101.1-1.4z M-116.3,49.5c-10.6,0-19.2-8.6-19.2-19.2c0-10.6,8.6-19.2,19.2-19.2s19.2,8.6,19.2,19.2
		C-97.1,40.9-105.7,49.5-116.3,49.5z M-96,14.4c-2.5,0-4.6-2-4.6-4.6c0-2.5,2-4.6,4.6-4.6c2.5,0,4.6,2,4.6,4.6
		C-91.4,12.3-93.5,14.4-96,14.4z"/>
	<path d="M-58.4-37.2h-116.5c-5,0-9.1,4.1-9.1,9.1V88.4c0,5,4.1,9.1,9.1,9.1h116.5c5,0,9.1-4.1,9.1-9.1V-28.1
		C-49.3-33.1-53.3-37.2-58.4-37.2z M-77.6,45.9c0,12.9-10.5,23.4-23.4,23.4h-31.2c-12.9,0-23.4-10.5-23.4-23.4V14.7
		c0-12.9,10.5-23.4,23.4-23.4h31.2c12.9,0,23.4,10.5,23.4,23.4V45.9z"/>
</g>
<g>
	<path d="M80.5,71.6L63,62c-0.7-0.4-3.2,0.1-3.2,0.9v18.6c0,0.8,2.4,1.3,3.2,0.9l18.3-9.1C82,73.1,81.2,72,80.5,71.6z"/>
	<path d="M127.9,3.3H11.4c-5,0-9.1,4.1-9.1,9.1v116.5c0,5,4.1,9.1,9.1,9.1h116.5c5,0,9.1-4.1,9.1-9.1V12.4
		C137,7.4,133,3.3,127.9,3.3z M105.3,81.6c0,8.8-7.2,16-16,16H48.5c-8.8,0-16-7.2-16-16v-19c0-8.8,7.2-16,16-16h40.9
		c8.8,0,16,7.2,16,16V81.6z"/>
</g>
<g>
	<path class="st0" d="M174.4-515.9H57.9c-5,0-9.1-4.1-9.1-9.1v-116.5c0-5,4.1-9.1,9.1-9.1h116.5c5,0,9.1,4.1,9.1,9.1v116.5
		C183.5-520,179.4-515.9,174.4-515.9z"/>
	<g>
		<path class="st1" d="M121.2-622.6c12.1,0,24.1,0,36.2,0c0.9,0,0.8-0.1,0.8,0.8c0,16.4,0,32.7,0,49.1c0,0.4-0.1,0.7-0.4,1
			c-6.9,6.9-13.9,13.9-20.8,20.8c-0.3,0.3-0.6,0.4-1.1,0.4c-5,0-10,0-15,0c-0.4,0-0.7,0.1-1.1,0.4c-3.3,3.3-6.7,6.7-10,10
			c-0.3,0.3-0.5,0.4-1,0.4c-3.2,0-6.5,0-9.7,0c-0.4,0-0.6-0.1-0.6-0.6c0-3.2,0-6.5,0-9.7c0-0.6-0.3-0.5-0.7-0.5
			c-6.2,0-12.3,0-18.5,0c-0.6,0-0.7-0.2-0.7-0.7c0-18.8,0-37.6,0-56.4c0-0.4,0.1-0.7,0.2-1.1c1.7-4.4,3.3-8.8,4.9-13.2
			c0.2-0.6,0.5-0.8,1.1-0.8C97.1-622.5,109.2-622.6,121.2-622.6z M107.7-552.4c0.3,0,0.3-0.2,0.4-0.3c3.3-3.3,6.6-6.6,9.9-9.9
			c0.3-0.3,0.7-0.5,1.2-0.5c6.2,0,12.4,0,18.6,0c0.4,0,0.6-0.1,0.9-0.3c4-4,7.9-7.9,11.9-11.9c0.3-0.3,0.4-0.6,0.4-1
			c0-12.8,0-25.6,0-38.4c0-0.5-0.1-0.7-0.7-0.7c-19.4,0-38.7,0-58.1,0c-0.6,0-0.8,0.1-0.8,0.8c0,16.5,0,33,0,49.5c0,0.4,0,0.9,0,1.3
			c0,0.5,0.1,0.7,0.7,0.7c5,0,9.9,0,14.9,0c0.5,0,0.7,0.1,0.7,0.7C107.7-559.1,107.7-555.8,107.7-552.4z"/>
		<path class="st1" d="M111.3-590.1c0-3.4,0-6.8,0-10.2c0-0.5,0.1-0.6,0.6-0.6c2,0,4.1,0,6.1,0c0.5,0,0.6,0.1,0.6,0.6
			c0,6.8,0,13.6,0,20.5c0,0.4-0.1,0.6-0.6,0.6c-2,0-4.1,0-6.2,0c-0.5,0-0.6-0.1-0.6-0.6C111.3-583.3,111.3-586.7,111.3-590.1z"/>
		<path class="st1" d="M138.3-590.1c0,3.4,0,6.8,0,10.2c0,0.5-0.1,0.7-0.6,0.7c-2,0-4,0-6,0c-0.4,0-0.6-0.1-0.6-0.6
			c0-6.8,0-13.6,0-20.4c0-0.5,0.1-0.7,0.6-0.6c2,0,4,0,6,0c0.5,0,0.6,0.2,0.6,0.7C138.3-596.9,138.3-593.5,138.3-590.1z"/>
	</g>
</g>
<path class="st0" d="M387.3-650.7c37.2,0,67.4,30.2,67.4,67.4c0,37.2-30.2,67.4-67.4,67.4c-37.2,0-67.4-30.2-67.4-67.4
	C319.9-620.5,350.1-650.7,387.3-650.7z M377.4-615.3c-7.7,0.2-13.7,0.3-19.7,1.2c-4.6,0.7-9.2,1.6-13.7,2.9
	c-5.1,1.5-5.9,7.5-3.2,10.6c1.9,2.2,4.4,2.7,7.1,1.9c7-2,14.1-3,21.3-3.4c12.4-0.7,24.7,0.4,36.8,3.5c5.7,1.4,11.2,3.4,16.4,6
	c1.3,0.7,2.6,1.5,4,2.1c2.9,1.3,6.3,0.2,7.9-2.6c1.9-3.3,0.7-7.3-2.8-9.4c-4.2-2.4-8.6-4.4-13.2-6.1c-4.3-1.5-8.7-2.8-13.1-3.8
	c-5.8-1.2-11.6-2.2-17.5-2.6C383.8-615,379.7-615.2,377.4-615.3z M374.3-592.1c-8.9-0.1-17.5,1.3-26,3.6c-1.6,0.4-3.1,1.2-3.8,2.8
	c-1,2.2-1,4.3,0.6,6.2c1.6,1.9,3.6,2.3,5.9,1.6c6.4-1.9,12.8-2.8,19.4-3.1c7.9-0.4,15.7,0.3,23.4,1.9c5.7,1.2,11.2,2.8,16.4,5.3
	c2.7,1.2,5.3,2.6,7.9,4c1.2,0.6,2.3,0.8,3.6,0.5c2.1-0.5,3.5-1.9,3.9-4c0.4-2.2,0-4.4-2-5.7c-2.1-1.4-4.3-2.6-6.5-3.7
	c-7.7-3.8-15.9-6.3-24.4-7.8C386.7-591.6,380.5-592.1,374.3-592.1z M417.4-556c0.1-1.5-0.8-2.8-2.3-3.7c-1.6-0.9-3.1-1.8-4.7-2.6
	c-9.5-4.7-19.7-7.1-30.3-7.6c-7.2-0.3-14.3,0.1-21.4,1.3c-3,0.5-6,1.1-9,1.8c-2.3,0.6-3.5,3-2.9,5.4c0.6,2.2,2.6,3.5,4.9,3
	c5.7-1.2,11.3-2.2,17.1-2.6c6.9-0.5,13.8-0.3,20.7,1c5.5,1,10.9,2.6,15.9,5.1c2,1,3.9,2.1,5.9,3.1
	C414.3-550.3,417.5-552.4,417.4-556z"/>
</svg>
