<?xml version="1.0" encoding="utf-8"?>
<!-- Generator: Adobe Illustrator 25.3.0, SVG Export Plug-In . SVG Version: 6.00 Build 0)  -->
<svg version="1.1" id="Capa_1" xmlns="http://www.w3.org/2000/svg" xmlns:xlink="http://www.w3.org/1999/xlink" x="0px" y="0px"
	 viewBox="0 0 1080 1080" style="enable-background:new 0 0 1080 1080;" xml:space="preserve">
<path d="M806.64,0H273.36C122.39,0,0,122.39,0,273.36v533.28C0,957.61,122.39,1080,273.36,1080h533.28
	C957.61,1080,1080,957.61,1080,806.64V273.36C1080,122.39,957.61,0,806.64,0z M837.11,361.41c0,1.5-0.03,5.16-3.08,9.26
	c-13.59,18.29-28.28,34.67-46.5,48.36c-2.64,1.99-7.08,4.06-7.08,7.82c0,96.07-24.55,192.02-94.57,261.6
	c-89.17,88.6-222.95,112.7-341.71,79.9c-23-6.35-44.99-15.25-66.08-26.44c-6.99-3.81-13.85-7.75-20.59-12.21
	c-1.71-1.38-2.98-2.65-1.52-3.55c1.44-0.72,2.56-0.78,7.87,0c33.21,3.27,67.44-1.67,98.86-12.65c17.28-6.04,54.39-18.18,65.09-34.5
	c0.24-0.38,0.51-0.38,0.77-0.77c-4.33-1.01-8.66-1.01-12.98-1.77c-32.26-9.22-75.36-25.41-95.31-79.82c-1.26-3.17,0-4.83,3.3-4.19
	c26.57,2.08,36.11,0.63,45.37-1.41c-5.2-0.88-10.54-2.66-15.37-4.7c-40.65-15.47-70.34-55.12-75.75-97.98
	c-0.63-4.95-1.02-9.16-0.76-13.73c0.25-3.17,1.66-4.19,4.45-2.42c20.9,10.81,44.36,13.36,46.25,12.96
	c-5.2-4.06-10.03-8.51-14.73-12.96c-35.25-33.39-48.93-101.33-20.72-143.61c2.29-3.43,3.81-3.43,6.61-0.24
	c64.47,73.46,143.89,107.74,239.7,122c2.54,0.38,2.78,0,2.41-2.8c-2.49-16.88-2.82-33.4,1.26-50.09
	c4.23-17.3,12.49-33.62,23.69-47.45c10.83-13.36,24.42-24.43,39.66-32.39c15.21-7.95,32.04-12.78,49.17-13.89
	c17.61-1.14,35.47,1.68,51.82,8.35c12.45,5.08,23.5,11.95,33.79,20.71c2.16,1.78,4.07,3.94,6.09,6.23c1.28,1.28,2.79,1.78,4.82,1.28
	c24.49-6.12,47.5-14.77,69.76-26.69c1.02-0.51,1.85-0.77,3.12-0.26c1.02,0.77,0.64,2.05,0.13,3.06c-3.98,13-11.02,25.04-19.53,35.61
	c-5.58,6.93-19.47,24.06-28.93,25.65c19.93-3.35,40.36-8.42,58.83-16.78c2.37-1.07,2.39-1.53,2.39,0
	C837.11,360.91,837.11,361.16,837.11,361.41z"/>
</svg>
