<?xml version="1.0" encoding="utf-8"?>
<!-- Generator: Adobe Illustrator 25.3.0, SVG Export Plug-In . SVG Version: 6.00 Build 0)  -->
<svg version="1.1" id="Capa_1" xmlns="http://www.w3.org/2000/svg" xmlns:xlink="http://www.w3.org/1999/xlink" x="0px" y="0px"
	 viewBox="0 0 1080 1080" style="enable-background:new 0 0 1080 1080;" xml:space="preserve">
<path d="M806.64,0H273.36C122.39,0,0,122.39,0,273.36v533.28C0,957.61,122.39,1080,273.36,1080h533.28
	C957.61,1080,1080,957.61,1080,806.64V273.36C1080,122.39,957.61,0,806.64,0z M823.73,476.73h-0.1c-5.41,0.52-10.85,0.8-16.3,0.82
	c-59.72,0.01-115.41-30.09-148.12-80.05v272.59c0,111.27-90.2,201.47-201.47,201.47c-111.27,0-201.47-90.2-201.47-201.47
	s90.2-201.47,201.47-201.47c4.21,0,8.32,0.38,12.46,0.64v99.28c-4.14-0.49-8.2-1.25-12.46-1.25c-56.79,0-102.82,46.04-102.82,102.83
	c0,56.79,46.04,102.82,102.82,102.82c56.8,0,106.97-44.75,106.97-101.55l0.99-462.96h94.98c8.95,85.18,77.63,151.71,163.05,157.95
	V476.73z"/>
</svg>
