<?xml version="1.0" encoding="utf-8"?>
<!-- Generator: Adobe Illustrator 22.0.0, SVG Export Plug-In . SVG Version: 6.00 Build 0)  -->
<svg version="1.1" xmlns="http://www.w3.org/2000/svg" xmlns:xlink="http://www.w3.org/1999/xlink" x="0px" y="0px"
	 viewBox="0 0 42 80.3" style="enable-background:new 0 0 42 80.3;" xml:space="preserve">
<style type="text/css">
	.st0rosa-icon{fill:#3B484A;}
	.st1rosa-icon{fill:url(#SVGID_7_);}
	.st2rosa-icon{fill:url(#SVGID_10_);}
	.st3rosa-icon{fill:url(#SVGID_13_);}
	.st4rosa-icon{fill:url(#SVGID_16_);}
	.st5rosa-icon{fill:url(#SVGID_17_);}
	.st6rosa-icon{fill:url(#SVGID_18_);}
	.st7rosa-icon{fill:#FFFFFF;}
	.st8rosa-icon{fill:none;stroke:#FFFFFF;stroke-miterlimit:10;}
	.st9rosa-icon{fill:#E6E6E6;}
</style>
<g id="fondo">
</g>
<g id="Capa_2">
	<g>
		<path d="M20.4,8.6c0-0.1,0-0.3,0-0.4c0.1,0,0.3,0,0.4,0c0,0.2,0,0.3,0.1,0.5c0.2-0.1,0.3-0.2,0.4-0.4c0.1,0.2,0.2,0.3,0.3,0.5
			c-0.1,0-0.2,0.1-0.2,0.1c-0.1,0.2-0.1,0.3-0.2,0.5c0.1,0.2,0.2,0.4,0.3,0.7c0.1-0.2,0.3-0.3,0.4-0.4c0-0.1-0.3-0.3,0.1-0.5
			C21.9,9.1,22,9.2,22,9.3c0.1,0.1,0.2,0.2,0.3,0.3c0.2-0.1,0.3-0.2,0.5-0.3c-0.1-0.1-0.2-0.2-0.2-0.2c-0.2,0.1-0.3,0.1-0.6,0.2
			c0-0.1-0.1-0.1-0.1-0.2c-0.1-0.3-0.1-0.6-0.2-0.9c0.1,0,0.2-0.1,0.3-0.1c0-0.3,0-0.5,0-0.8c0.1-0.1,0.2-0.2,0.3-0.3
			c0,0.2,0,0.4,0.1,0.6c0,0,0.1,0,0.1,0c0-0.2,0.1-0.4,0.4-0.4c0,0.1,0.1,0.2,0.1,0.3c0.3,0,0.5,0,0.8,0c0.1,0.1,0.2,0.2,0.2,0.2
			C24,7.9,23.9,8,23.8,8c-0.1,0-0.1-0.1-0.2-0.2c0,0.2,0,0.3,0,0.5c0.2-0.1,0.3-0.1,0.5-0.2c0,0.2,0,0.4-0.1,0.7c0,0.1,0.1,0,0.1,0
			c0-0.1,0-0.1-0.1-0.2c0,0.1-0.1,0.2,0,0.2c0.2-0.2,0.2-0.2,0.3-0.2c0,0.1,0.1,0.2,0.1,0.3c0.1,0,0.1,0,0.2,0c0-0.4,0-0.7,0-1.1
			c0.1-0.1,0.3-0.2,0.4-0.3c0-0.7-0.6-1-0.9-1.5c0-0.1,0-0.2,0-0.3c-0.1,0.1-0.3,0.1-0.3,0.2c-0.3,0.4-0.5,0.8-0.7,1.2
			C22.8,7,22.6,7,22.5,6.9c-0.1-0.1-0.3-0.3-0.4-0.4c0.1-0.2,0.3-0.4,0.6-0.5c0-0.1,0-0.3,0-0.4c0.2-0.2,0.2-0.2,0-0.4
			c0,0.2,0,0.3,0,0.4c-0.3-0.1-0.7-0.3-1-0.4c0,0-0.1,0-0.1,0.1c0-0.1,0-0.2-0.1-0.2c0.2-0.1,0.3-0.1,0.4-0.2c0,0.1,0,0.2,0.1,0.3
			c0.1,0,0.1,0,0.3,0.1c0-0.2-0.1-0.3-0.1-0.4c0,0,0.1-0.1,0.1-0.2c-0.3,0.1-0.5,0.1-0.7,0.2c0,0,0-0.1,0-0.1
			c0.2-0.1,0.4-0.2,0.6-0.3c0-0.2,0-0.4,0-0.6c0,0,0.1-0.1,0.4-0.2c0.1,0,0,0-0.1,0.1c0,0,0,0.1,0,0.1c0,0.1,0.1,0.1,0.2,0.2
			c0.1-0.1,0.2-0.2,0.2-0.3c0,0,0-0.1-0.2-0.1c-0.2-0.1-0.2-0.2-0.1-0.3c0.3-0.2,0.5-0.5,0.6-0.8c0.1-0.3,0.5-0.4,0.7-0.7
			c0.2-0.2,0.4,0,0.6,0.2C24.2,1.9,24,2,23.8,2.1c0.2,0.1,0.3,0.2,0.4,0.3c-0.1,0.1-0.1,0.1-0.2,0.3c0.2,0.2,0.4,0.3,0.6,0.5
			c-0.1,0.1-0.1,0.2-0.2,0.4c0.2-0.1,0.2-0.1,0.3-0.2c0,0.1,0,0.3,0,0.4c-0.1,0-0.2,0.1-0.4,0.2c0.2,0.1,0.4,0.2,0.5,0.3
			c0.1-0.1,0.2-0.2,0.3-0.3c0-0.2-0.1-0.4-0.1-0.6c0,0,0.1,0,0.1,0c0,0.1,0.1,0.2,0.1,0.3c0.1-0.1,0.3-0.2,0.4-0.3
			c0,0.1,0,0.2,0,0.2c0,0.1,0.1,0.1,0.1,0.2C26,3.9,26.1,4,26.1,4.1c0,0.1,0.1,0.1,0.1,0.2c0.2-0.2,0.4-0.3,0.6-0.5
			c0,0.2,0,0.3,0.1,0.4c0.1,0,0.3,0,0.4,0c-0.1-0.2-0.1-0.4-0.1-0.5c-0.1-0.1-0.2-0.1-0.5-0.2c-0.1,0.1-0.3,0.2-0.4,0.3
			c0,0,0-0.2,0-0.3c-0.2,0-0.3,0-0.4,0c-0.2-0.3-0.2-0.7-0.5-0.9c-0.1,0.2-0.2,0.3-0.4,0.5c-0.3-0.4,0.1-0.7,0.1-1
			c-0.1,0-0.3,0.1-0.5,0.2c0-0.3,0-0.5,0-0.8c0.4-0.1,0.8,0.1,1.2-0.1c0.1,0,0.2,0.1,0.3,0.1c0.3,0,0.6,0.1,0.9,0.1
			c0-0.2,0-0.3,0-0.4c0.3-0.1,0.6-0.2,0.9-0.3c0,0,0.1,0.1,0.2,0.2c0.1-0.1,0.2-0.1,0.3-0.2C28.7,0.9,29,1,29.5,1.1
			c0.2-0.3,0.5-0.6,0.8-0.8c0,0,0.1,0.1,0.1,0.1c0.3,0,0.5,0,0.8,0c0.2,0,0.5,0.2,0.7,0.1c0.7,0,1.4,0.2,2,0.6c0,0.1,0,0.2,0,0.5
			C34,1.5,34,1.4,34,1.3c0.4,0.3,0.8,0.7,1.3,0.9c0.5,0.2,0.8,0.7,1.3,0.8c0.1,0,0.1,0.1,0.2,0.2c0.1,0.2,0.2,0.5,0.3,0.6
			c0.4,0.4,0.5,0.8,0.4,1.4c0.6,0.3,0.5,1,0.8,1.5c-0.1,0-0.1,0.1-0.1,0.1c0,0,0,0.1,0,0.1c0.3,0.5,0.6,1,1,1.4
			c0.2,0.2,0.2,0.5,0.1,0.7c-0.1,0.1-0.1,0.2-0.1,0.3c0,0.2,0.1,0.4,0.1,0.6c0,0.2-0.1,0.5,0.1,0.6c-0.1,0.8,0.4,1.6,0.3,2.4
			c0,0.3,0.1,0.5,0.1,0.8c0.1,0.3,0.2,0.6,0.3,0.9c0,0.2,0,0.4-0.1,0.5c-0.3,0.4-0.4,0.8-0.5,1.2c0.3,0.3,0.3,0.3,0.7,0.3
			c0.2,0.6,0.6,1.2,0.2,1.9l0.3,1.8c0.1,0.3,0.2,0.7,0.3,1c0.1,0.8,0.1,1.6,0.4,2.4c0,0.1,0.1,0.3,0.1,0.4c-0.2,0.2-0.3,0.3-0.5,0.4
			c0,0.4,0,0.7,0,0.9c-0.2,0.1-0.4,0.1-0.6,0.1c-0.4-0.3-0.3-0.8-0.5-1.2c-0.1-0.4-0.3-0.7-0.5-1.1c-0.1-0.3-0.3-0.7-0.6-1
			c-0.2-0.2-0.3-0.5-0.5-0.8c-0.3,0.4,0.1,0.8,0.1,1.2c0,0.3,0,0.7,0.5,1c-0.2,0-0.4,0.1-0.5,0.1c0,0.1,0,0.1,0,0.2
			c0.2,0,0.3,0,0.4,0.1c0,0.2,0,0.4,0,0.7c0.2,0.1,0.4,0.3,0.5,0.4c-0.1,0.6,0.1,1.1,0.2,1.6c0.1,0.4,0,0.9,0.1,1.2
			c-0.2,0.2-0.3,0.3-0.4,0.5c-0.1,0-0.2,0-0.4,0c-0.1-0.2-0.1-0.4-0.2-0.6c-0.1,0.1-0.3,0.2-0.4,0.3c0,0,0,0,0,0
			c0,0-0.1-0.1-0.1-0.1c0,0,0,0,0,0c0,0,0.1,0.1,0.1,0.1c0.1,0.1,0.2,0.2,0.3,0.2c0,0.1,0,0.2,0,0.4c0.1-0.1,0.2-0.2,0.3-0.3
			c0.1,0.2,0.2,0.4,0.4,0.5c0.3,0.2,0.5,0.5,0.7,0.7c-0.3,0.6-0.6,1.1-0.9,1.6c0.1,0.1,0.2,0.2,0.3,0.2c-0.1,0.2-0.3,0.3,0,0.5
			c-0.1,0.2-0.3,0.4-0.4,0.6c-0.1-0.1-0.3-0.2-0.4-0.3c0.1-0.2,0.1-0.4,0.2-0.7c-0.2,0.1-0.3,0.1-0.5,0.2c0-0.2,0-0.3,0-0.5
			c-0.2-0.1-0.4-0.3-0.5-0.4c0-0.3,0-0.5,0-0.5c-0.2-0.6-0.6-1-1.1-1.2c-0.4-0.3-0.5-0.9-1.1-1.1c0-0.1,0.1-0.2,0.2-0.3
			c-0.3-0.2-0.8-0.4-1.1-0.8c-0.2,0-0.5,0-0.7,0c0.1,0.3-0.1,0.5,0.1,0.8c0.1,0.1-0.1,0.3,0,0.4c0.1,0.3,0,0.7,0.2,1
			c0.1,0.1,0.1,0.4-0.1,0.6c-0.1,0.1-0.1,0.3-0.1,0.4c-0.4,0-0.5,0.2-0.5,0.5c0.1,0,0.1,0.1,0.2,0.1c0.3,0.5,0.1,1,0,1.5
			c-0.1,0-0.2,0-0.4,0c0-0.1,0-0.2,0-0.3c0,0,0.1,0.1,0.1,0.1c0-0.1,0.1-0.2,0.1-0.4c0,0,0.1,0.1,0.1,0.1c0-0.2,0-0.4,0-0.5
			c0,0-0.1,0-0.1,0c-0.1,0.2-0.2,0.5-0.2,0.8c-0.2,0-0.3,0-0.5,0c-0.1-0.1-0.2-0.2-0.3-0.4c0.3-0.1,0.5-0.2,0.7-0.3
			c-0.1-0.1-0.2-0.2-0.3-0.3c-0.1,0-0.3,0-0.5,0c-0.1-0.3-0.3-0.6-0.5-0.9c0,0-0.1,0-0.2,0c0,0.3,0,0.6,0,1c-0.3-0.4-0.5-0.7-0.7-1
			c0-0.1,0.1-0.1,0.2-0.2c-0.3-0.2-0.4-0.4-0.5-0.8c-0.1-0.5-0.4-0.9-0.7-1.4c-0.1,0.1-0.1,0.2-0.2,0.4c0.1,0.7,0.2,1.5,0.3,2.3
			c-0.1,0.1-0.2,0.2-0.3,0.2c-0.1,0.4-0.3,1.1-0.5,1.3c-0.1,0-0.3,0-0.4,0c-0.1-0.2-0.3-0.4-0.4-0.6c0-0.1,0.1-0.1,0.2-0.2
			c-0.1-0.1-0.1-0.1-0.2-0.2c0,0-0.1,0-0.1,0.1c-0.1,0.2-0.1,0.5-0.2,0.7c0,0.3,0.1,0.5,0,0.8c-0.2,0.6-0.1,1.2-0.2,1.8
			c-0.3-0.2-0.6-0.3-0.7-0.6c0-0.1-0.3-0.2-0.5-0.3c-0.1,0.3-0.1,0.6-0.2,1c0,0.1,0.1,0.3,0.1,0.6c-0.2,0-0.3,0-0.5,0
			c0.1-0.3-0.1-0.6,0-0.9c-0.1-0.2-0.2-0.4-0.3-0.6c-0.2-0.3-0.1-0.5,0-0.7c0.1,0,0.2,0,0.2,0c0.2-0.4,0.3-0.9,0.7-1.2
			c0.1-0.1,0.1-0.3,0-1.1c-0.1-0.2,0.1,0,0.1,0.3c0.1,0.4,0.2,0.3,0.4,0.3c0-0.3-0.1-0.6-0.1-0.8c-0.2,0-0.3-0.1-0.5,0.3
			c0,0.7-0.1,0.8-0.2,1c0,0-0.1-0.1-0.1-0.1c-0.1,0.1-0.3,0.2-0.5,0.4c-0.1-0.6-0.5-0.7-0.8-0.9c-0.5-0.1-0.7,0.3-1,0.5
			c0.2,0.3,0.3,0.5,0.5,0.9c0.4,0.1,0.8,0.1,1.3,0.2c0,0.1,0,0.2,0,0.3c-0.1,0-0.3,0-0.4,0c0,0.2,0,0.5-0.1,0.7
			c-0.5,0-0.7,0.5-1.1,0.6c-0.2,0.5-0.3,1-0.4,1.5c-0.3-0.1-0.6-0.1-0.9-0.2c0.1-0.2-0.1-0.5,0.2-0.8c0,0,0-0.1,0-0.2
			c0-0.1,0-0.2,0-0.2c-0.4-0.4-0.1-1.1-0.6-1.5c0-0.2,0-0.5-0.1-0.7c0-0.2-0.1-0.4-0.1-0.6c-0.4-0.1-0.5-0.6-0.8-1
			c-0.3-0.4-0.2-0.8-0.2-1.2c-0.4-0.3-0.4-0.8-0.6-1.2c-0.1-0.4-0.3-0.6-0.6-0.9c-0.6,0.4-0.6,1.1-0.9,1.7c-0.4,0.1-0.8,0-1.1-0.4
			c0-0.7,0.4-1.4,0.3-2.1c0,0,0,0,0,0c0,0,0.1-0.1,0.1-0.1c0,0,0,0,0,0c0,0-0.1,0.1-0.1,0.1c-0.3,0.3-0.5,0.7-0.6,1.2
			c-0.3,0.1-0.5,0.1-0.8-0.1c-0.2,0.2-0.3,0.3-0.5,0.5c-0.2-0.2-0.3-0.3-0.5-0.5c0-0.2,0-0.3,0-0.5c0.1-0.1,0.2-0.2,0.3-0.3
			c0-0.3,0.1-0.7-0.2-1c0.1-0.1,0.2-0.1,0.2-0.2c0-0.3,0-0.7,0-1c0-0.3,0.1-0.6,0.2-0.9c0.1-0.8,0.2-1.5,0.5-2.3
			c0.1-0.2,0-0.4,0-0.6c0-0.2,0.1-0.4,0.2-0.5c0.1-0.4,0.2-0.8,0.2-1.3c0.3,0.1,0.5,0.2,0.8,0.2c0.3,0,0.5-0.1,0.8-0.2
			c0.2-0.3,0.4-0.5,0.7-0.9c0-0.1,0-0.2,0-0.3c0.2-0.1,0.4-0.2,0.6-0.3c-0.1-0.3-0.2-0.5-0.3-0.7c-0.1-0.2-0.4-0.1-0.5-0.4
			c0,0,0,0,0,0c0,0,0.1-0.1,0.1-0.1c0,0,0,0,0,0c0,0-0.1,0.1-0.1,0.1c-0.1,0-0.1,0-0.3,0c0,0.3,0,0.7,0,0.9
			c-0.4,0.3-0.8,0.5-1.1,0.7c0,0.2,0,0.4-0.1,0.7c-0.1-0.2-0.3-0.3-0.4-0.5c0,0,0.1-0.1,0.1-0.3c-0.2-0.5-0.2-1.5,0-2.1
			c0-0.2,0-0.3,0.1-0.5c0-0.4-0.1-0.9,0.2-1.3c0-0.1,0-0.2-0.1-0.4c0.4-0.4,0.3-1,0.1-1.6c0.4-0.4,0.6-0.8,0.5-1.3
			c0.5-0.8,0.7-1.6,0.9-2.4c0.1,0.1,0.3,0.1,0.4,0.2C20.3,8.3,20.1,8.6,20.4,8.6c0,0.1-0.1,0.3-0.1,0.4c0,0.1,0.1,0.3,0.1,0.4
			c0,0.2,0.1,0.4,0.3,0.4c0,0.1,0,0.2,0,0.2c0.1,0,0.2-0.1,0.3-0.1c0,0,0-0.1-0.1-0.1c-0.1,0-0.2,0-0.3,0c0-0.2-0.1-0.5-0.1-0.7
			c0.1-0.1,0.1-0.2,0.2-0.3C20.6,8.8,20.5,8.7,20.4,8.6z M38.4,27.3C38.4,27.3,38.4,27.3,38.4,27.3c0.1,0,0.1,0,0.2-0.1c0,0,0,0,0,0
			C38.4,27.2,38.4,27.2,38.4,27.3C38.4,27.3,38.4,27.3,38.4,27.3c0,0-0.1,0.1-0.1,0.1c0,0,0,0,0,0C38.3,27.4,38.4,27.4,38.4,27.3z
			 M31.7,9.2c0,0,0-0.1,0-0.1c-0.1,0-0.2,0-0.3,0.1c0,0,0,0.1,0,0.1c0.1,0,0.2,0,0.3-0.1C31.8,9,31.8,9,31.9,8.9
			c0.5-0.3,0.9-0.7,1.6-0.3c0-0.3,0-0.5,0-0.7c0.5-0.3,1-0.6,1.5-1c0,0,0,0,0,0c0,0,0.1,0.1,0.1,0.1c0,0,0,0,0,0C35.1,7,35,7,35,7
			c0.1-0.1,0.1-0.2,0.1-0.4c0.1,0.1,0.3,0.3,0.4,0.4c0,0,0,0,0.1-0.1c-0.2-0.4-0.2-0.4-0.4-0.2c-0.5-0.1-0.9,0.3-1.2,0.5
			c-0.5,0.2-1,0.5-1.1,1c-0.4,0-0.7,0.3-1,0.5c0.1,0.1,0.1,0.2,0.1,0.3C31.8,9,31.8,9,31.7,9.2z M37.6,8.7
			C37.6,8.7,37.6,8.7,37.6,8.7c0,0.1,0,0.1,0.1,0.2c0,0,0,0,0,0c0,0-0.1-0.1-0.3-0.1C37.5,8.7,37.5,8.7,37.6,8.7
			c0-0.1,0-0.2-0.1-0.3c0,0-0.1,0-0.1,0C37.4,8.5,37.4,8.6,37.6,8.7z M23.5,2.4c0,0,0,0.1,0,0.1c0.1,0,0.2,0,0.3-0.1
			c0,0,0-0.1,0-0.1c-0.1,0-0.2,0-0.3,0.2c0,0,0,0,0,0c0,0-0.1,0.1-0.1,0.1c0,0,0,0,0,0C23.5,2.6,23.5,2.6,23.5,2.4z M35.8,10.9
			C35.7,10.9,35.7,10.8,35.8,10.9c-0.2-0.1-0.3-0.1-0.4-0.1c0,0.1,0,0.2,0,0.3c0.1-0.1,0.3-0.2,0.5-0.7c-0.1,0.1-0.2,0.1-0.2,0.2
			C35.7,10.7,35.7,10.8,35.8,10.9C35.8,10.7,35.8,10.6,35.8,10.9z M23.3,4c0.1,0,0.1,0,0.1,0c0.1,0.2,0.1,0.4,0.2,0.5
			c0.2,0.1,0.3,0.1,0.5,0.2c0-0.2,0-0.3,0-0.5c-0.1,0-0.2-0.1-0.3-0.1c0.2-0.1,0.3-0.1,0.4-0.2c-0.1,0-0.2,0-0.3-0.1
			C24,4,23.9,4,23.9,3.9C23.8,4,23.6,4,23.5,4c0-0.1,0-0.3,0-0.4c0,0-0.1,0-0.1,0C23.4,3.8,23.3,3.9,23.3,4C23.4,4,23.3,4,23.3,4
			c-0.1,0-0.1,0.1-0.1,0.1c0,0,0,0,0,0C23.3,4.1,23.3,4.1,23.3,4z M22.2,8.8c0.1,0,0.2,0,0.3,0c0.1-0.3,0-0.3-0.3-0.3
			C22.2,8.6,22.2,8.7,22.2,8.8C22.2,8.8,22.2,8.8,22.2,8.8c0,0-0.1,0-0.1,0.1c0,0,0,0,0,0C22.1,8.9,22.2,8.8,22.2,8.8z M33,5
			c0,0.1,0,0.2,0,0.3c0.2-0.1,0.4-0.2,0.6-0.4c0,0,0-0.1,0-0.1c-0.2,0.1-0.4,0.1-0.9,0.5C32.8,5.1,32.9,5,33,4.9
			c-0.2-0.1-0.3-0.1-0.5-0.2c0,0-0.1,0-0.1-0.1c0,0.1,0,0.3,0,0.4C32.5,5.1,32.5,5.2,33,5z M29,9c0.1,0,0.2-0.1,0.3-0.1
			c0,0.1,0.1,0.2,0.1,0.3c0.1-0.1,0.2-0.2,0.2-0.2c-0.1-0.1-0.2-0.3-0.2-0.4c-0.2,0.1-0.4,0.2-0.4,0.3c-0.1,0.3-0.2,0.5-0.3,0.8
			c0.1,0,0.2,0,0.3,0C28.9,9.4,28.9,9.2,29,9z M36.6,9.2c0.1-0.1,0.3-0.3,0.5-0.5c-0.4,0-0.4,0-0.5,0.6c-0.1,0.1-0.1,0.1,0.3,0.3
			c-0.4,0-0.6-0.3-1.1-0.1c0,0.1,0,0.3,0,0.4c0.4,0,0.7,0,1.1,0c0-0.1,0-0.1-0.5-0.4C36.5,9.4,36.6,9.4,36.6,9.2z M24.3,9.6
			C24.3,9.6,24.3,9.6,24.3,9.6c0-0.1,0-0.1-0.1-0.2c0,0,0,0,0,0C24.2,9.5,24.3,9.6,24.3,9.6c0,0.1-0.1,0.1-0.1,0.2
			c0.1,0,0.2,0.1,0.3,0.2c-0.1,0.1-0.1,0.2-0.2,0.4c0.1,0,0.2,0,0.3,0c-0.1-0.3,0-0.5,0.3-1.1c-0.1,0.1-0.2,0.1-0.2,0.2
			c0,0.1,0,0.1,0.1,0.2c0-0.1,0.1-0.2-0.1,0C24.6,9.6,24.5,9.6,24.3,9.6z M25.9,8.4C25.9,8.4,25.9,8.4,25.9,8.4c0,0.1,0,0.1,0.1,0.2
			c0,0,0,0,0,0C26,8.4,26,8.4,25.9,8.4c0-0.1,0-0.2,0-0.3c-0.2,0-0.3,0-0.3,0c-0.2,0.2-0.3,0.3-0.5,0.4c0.1,0.1,0.2,0.2,0.4,0.3
			c0.1-0.1,0.1-0.2,0.2-0.4C25.7,8.4,25.8,8.4,25.9,8.4z M25.6,9.8c-0.2,0-0.3,0-0.6,0.1c0.2,0.2,0.3,0.4,0.5,0.6
			c0.1-0.1,0.3-0.2,0.4-0.3C26.2,9.9,26,9.7,26,9.4c-0.2,0-0.3,0-0.5,0C25.6,9.6,25.6,9.7,25.6,9.8z M38.1,28.6
			c0,0.2,0.1,0.4,0.5,0.3C38.4,28.8,38.2,28.7,38.1,28.6c-0.3-0.2-0.6,0-0.9-0.1c-0.2-0.1-0.3-0.2-0.4-0.4c-0.1,0.2-0.2,0.3-0.3,0.4
			c0.2,0.1,0.3,0.2,0.4,0.2c0.1,0,0.2-0.1,0.3-0.1c0.1,0.1,0.2,0.1,0.2,0.2C37.6,28.8,37.8,28.7,38.1,28.6z M36.7,21.3
			c0,0.2,0.1,0.4,0.1,0.5c0,0.2,0.2,0.4,0.2,0.5c0.1,0.2,0.2,0.3,0.2,0.5C37.1,23,37.1,23,37,23.1c0.2,0.3,0.5,0.4,0.5,0.8
			c-0.1,0-0.3,0-0.4,0.1c0,0.1,0,0.2,0,0.2c0.4,0,0.7,0,1,0c0,0,0,0,0-0.1c-0.1,0-0.3-0.1-0.5-0.1c0.1-0.1,0.1-0.1,0.2-0.2
			c0-0.1-0.1-0.1-0.2-0.2c0.2-0.1,0.3-0.2,0.5-0.3c-0.1-0.1-0.2-0.2-0.2-0.2c0.2-0.3,0.1-0.5,0-0.7c0-0.1,0-0.2,0-0.3
			c0.2-0.4,0.1-0.8-0.1-1.1c-0.5,0.5-0.6,0.5-1.3,1.5c0.1-0.1,0.2-0.1,0.2-0.2c0-0.1,0-0.1-0.1-0.2C36.7,22.1,36.6,22.2,36.7,21.3z
			 M37.2,18.6c0,0-0.1,0.1-0.2,0.1c-0.1-0.1-0.2-0.2-0.3-0.5c0,0.4,0,0.6,0,0.8c0.2,0.2,0.3,0.4,0.4,0.6c0.2-0.3,0.4-0.5,0.6-0.7
			c0,0,0-0.1,0-0.2C37.5,18.7,37.4,18.6,37.2,18.6z M23.8,5.3c0,0.1,0,0.1-0.1,0.2c0.6,0,0.5,0.7,1,0.8c0-0.2,0-0.5,0-0.7
			C24.5,5.4,24.2,5.3,23.8,5.3z M23.3,10.6c0.4,0,0.6,0,0.7-0.3c0-0.1,0-0.2,0-0.3c-0.1,0-0.2-0.1-0.3-0.1c0-0.1,0-0.3-0.1-0.4
			c-0.1,0-0.2,0-0.2,0c0,0.2,0,0.4,0,0.6c0.1,0,0.2,0.1,0.3,0.1C23.6,10.4,23.5,10.5,23.3,10.6z M37.1,16.6c0.6,0,0.6,0,0.5-0.7
			C37.6,16.4,37.2,16.3,37.1,16.6z M23,7.9c-0.2,0-0.4,0-0.7,0c0.2,0.2,0.3,0.3,0.4,0.5C22.8,8.2,22.9,8.1,23,7.9z M23.1,9.3
			C23.1,9.3,23,9.3,23.1,9.3c-0.1,0.3-0.2,0.6-0.3,0.9c0.1,0,0.2,0,0.3,0C23.1,9.9,23.1,9.6,23.1,9.3z M23.7,3.5
			c0.2,0,0.2,0.1,0.3,0.1c0.1,0,0.1,0.1,0.2,0.2c0,0,0.1-0.1,0.1-0.1c-0.1-0.2-0.1-0.4-0.2-0.6C24,3.2,23.9,3.3,23.7,3.5z M28.9,2
			c0.3,0.2,0.4,0,0.6-0.1c0.2-0.1,0.2-0.2,0.1-0.3C29.4,1.8,29.2,1.9,28.9,2z M35,8.6c-0.1,0.2-0.1,0.3-0.3,0.6
			C35,9.1,35.1,9,35.3,8.9C35.2,8.8,35.1,8.8,35,8.6z M38.8,29.9c-0.1-0.1-0.2-0.2-0.2-0.2c0-0.1,0-0.2-0.1-0.3
			c-0.1,0-0.2,0.1-0.3,0.1C38.4,29.8,38.5,29.9,38.8,29.9z M38.9,9.7c-0.4,0-0.4,0-0.4,0.2c0.1,0,0.1,0,0.2,0c0.1,0,0.1,0,0.2,0
			C38.9,9.8,38.9,9.8,38.9,9.7z M19.3,14.5c-0.1-0.1-0.2-0.2-0.3-0.3c0,0.3,0,0.4,0,0.6C19.2,14.7,19.3,14.6,19.3,14.5z M29.2,10
			c0,0,0.1,0.1,0.1,0.1c0.1,0,0.1,0,0.2,0c0-0.1,0-0.2-0.1-0.4C29.4,9.9,29.3,9.9,29.2,10z M39.3,29.7c0,0-0.1-0.1-0.1-0.1
			c0,0.2-0.3,0.1-0.1,0.5C39.1,30,39.2,29.8,39.3,29.7z M30.5,10c0,0,0.1-0.1,0.1-0.1c0-0.1-0.1-0.2-0.1-0.2c0-0.1-0.1-0.1-0.2-0.2
			c0,0-0.1,0.1-0.1,0.1C30.4,9.7,30.5,9.9,30.5,10z M23.1,3.9c0,0,0.1-0.1,0.1-0.1c0-0.1,0-0.1,0-0.2c-0.1,0-0.2,0-0.4,0.1
			C22.9,3.8,23,3.8,23.1,3.9z M22.8,8.9c0.3,0,0.3-0.1,0.2-0.3c-0.1,0-0.1,0-0.2,0C22.8,8.8,22.8,8.8,22.8,8.9z M29.3,5.3
			c-0.1,0.3,0,0.4,0.1,0.3C29.3,5.6,29.3,5.5,29.3,5.3z M31.3,9.7C31.4,9.7,31.4,9.6,31.3,9.7c0.1-0.1,0.1-0.2,0-0.2
			c0,0-0.1,0-0.2-0.1C31.2,9.4,31.2,9.5,31.3,9.7C31.3,9.6,31.3,9.7,31.3,9.7z M28,1.7c-0.1-0.1-0.2-0.2-0.3-0.3
			C27.6,1.8,27.7,1.8,28,1.7z M35.7,9.2c-0.3-0.1-0.3,0-0.2,0.2C35.5,9.3,35.6,9.2,35.7,9.2z M35,12.8c0-0.4,0-0.4-0.1-0.4
			C34.9,12.5,34.9,12.6,35,12.8z M31.5,1.7c0,0,0,0.1,0,0.1c0.1,0,0.2,0,0.3-0.1c0,0,0,0,0-0.1C31.7,1.7,31.6,1.7,31.5,1.7z
			 M33.9,4.5C33.9,4.5,33.9,4.5,33.9,4.5c-0.1,0.1-0.1,0.2-0.1,0.3c0,0,0.1,0,0.1,0C33.9,4.7,33.9,4.6,33.9,4.5z M23.3,4.6
			C23.3,4.6,23.3,4.6,23.3,4.6c-0.1-0.1-0.2-0.1-0.3-0.1c0,0,0,0.1,0,0.1C23.1,4.6,23.2,4.6,23.3,4.6z M35.3,7.3c0,0,0,0.1,0,0.1
			c0.1,0,0.2,0,0.3-0.1c0,0,0,0,0-0.1C35.5,7.3,35.4,7.3,35.3,7.3z M30.7,10.4c0,0,0.1,0,0.1,0c0-0.1,0-0.2-0.1-0.3c0,0-0.1,0-0.1,0
			C30.7,10.2,30.7,10.3,30.7,10.4z M22.5,10.5c0,0-0.1,0-0.1,0c0,0.1,0,0.2,0.1,0.3c0,0,0.1,0,0.1,0C22.5,10.7,22.5,10.6,22.5,10.5z
			 M19.7,14.8C19.7,14.8,19.7,14.8,19.7,14.8c0.1,0.1,0.2,0.1,0.3,0.1c0,0,0-0.1,0-0.1C19.9,14.8,19.8,14.8,19.7,14.8z M37,17.8
			C37,17.8,37,17.8,37,17.8c0.1,0.1,0.2,0.1,0.3,0.1c0,0,0-0.1,0-0.1C37.2,17.8,37.1,17.8,37,17.8z M37.2,19.9
			C37.2,19.9,37.2,19.9,37.2,19.9c-0.1,0.1-0.1,0.2-0.1,0.3c0,0,0.1,0,0.1,0C37.2,20.1,37.2,20,37.2,19.9z M24.2,24.6
			C24.2,24.6,24.2,24.6,24.2,24.6c0.1-0.1,0.1-0.2,0.1-0.3c0,0-0.1,0-0.1,0C24.2,24.4,24.2,24.5,24.2,24.6z M27.9,28
			c0,0,0-0.1,0-0.1c-0.1,0-0.2,0-0.3,0.1c0,0,0,0,0,0.1C27.7,28,27.8,28,27.9,28z M28,29C28,29,28,29,28,29
			c-0.1,0.1-0.1,0.2-0.1,0.3c0,0,0.1,0,0.1,0C28,29.2,28,29.1,28,29z M32.1,1.8C32.1,1.8,32.1,1.8,32.1,1.8C32.1,1.8,32,1.8,32,1.8
			c0,0,0,0,0,0.1C32,1.8,32.1,1.8,32.1,1.8z M33.2,2.1C33.2,2.1,33.2,2.1,33.2,2.1c0.1,0.1,0.1,0.1,0.2,0.1c0,0,0,0,0-0.1
			C33.3,2.1,33.3,2.1,33.2,2.1z M34,9.2C34,9.2,34,9.2,34,9.2c0.1,0.1,0.1,0.1,0.2,0.1c0,0,0,0,0-0.1C34.1,9.2,34.1,9.2,34,9.2z
			 M37.3,17.6C37.3,17.5,37.3,17.5,37.3,17.6c-0.1-0.1-0.1-0.1-0.2-0.1c0,0,0,0,0,0.1C37.2,17.6,37.2,17.6,37.3,17.6z M21.3,10.2
			C21.3,10.2,21.3,10.2,21.3,10.2c0.1,0.1,0.1,0.1,0.2,0.1c0,0,0,0,0-0.1C21.4,10.2,21.3,10.2,21.3,10.2z M26.2,9.1
			C26.2,9.1,26.2,9.1,26.2,9.1C26.1,9,26.1,9,26,9c0,0,0,0,0,0.1C26.1,9.1,26.1,9.1,26.2,9.1z M38,18.9C38,18.9,38,18.9,38,18.9
			c0.1,0.1,0.1,0.1,0.2,0.1c0,0,0,0,0-0.1C38.1,18.9,38.1,18.9,38,18.9z M19.5,19.8C19.5,19.8,19.5,19.8,19.5,19.8
			c0.1-0.1,0.1-0.1,0.1-0.2c0,0,0,0-0.1,0C19.5,19.7,19.5,19.8,19.5,19.8z M24.8,10.4C24.8,10.4,24.8,10.4,24.8,10.4
			c0.1,0.1,0.1,0.1,0.2,0.1c0,0,0,0,0-0.1C24.9,10.4,24.8,10.4,24.8,10.4z M19.1,20.9C19.1,20.9,19.1,21,19.1,20.9
			c0.1,0.1,0.1,0.1,0.2,0.1c0,0,0,0,0-0.1C19.2,20.9,19.2,20.9,19.1,20.9z M36.8,23.4C36.8,23.4,36.8,23.4,36.8,23.4
			c-0.1,0.1-0.1,0.1-0.1,0.2c0,0,0,0,0.1,0C36.8,23.5,36.8,23.5,36.8,23.4z M26.6,9.3C26.6,9.3,26.6,9.3,26.6,9.3
			c-0.1,0.1-0.1,0.1-0.1,0.2c0,0,0,0,0.1,0C26.6,9.4,26.6,9.4,26.6,9.3z M37.6,24.6C37.6,24.6,37.6,24.6,37.6,24.6
			c0.1,0.1,0.1,0.1,0.2,0.1c0,0,0,0,0-0.1C37.7,24.6,37.7,24.6,37.6,24.6z M37.5,26.4C37.5,26.4,37.5,26.5,37.5,26.4
			c0.1,0.1,0.1,0.1,0.2,0.1c0,0,0,0,0-0.1C37.6,26.4,37.5,26.4,37.5,26.4z M37.7,27.9C37.7,27.9,37.7,27.9,37.7,27.9
			c-0.1,0.1-0.1,0.1-0.1,0.2c0,0,0,0,0.1,0C37.7,28,37.7,28,37.7,27.9z M26,8.8C26,8.8,26,8.8,26,8.8c-0.1-0.1-0.1-0.1-0.2-0.1
			c0,0,0,0,0,0.1C25.9,8.8,26,8.8,26,8.8z M23.5,8.7C23.5,8.7,23.5,8.7,23.5,8.7c-0.1,0.1-0.1,0.1-0.1,0.2c0,0,0,0,0.1,0
			C23.5,8.8,23.5,8.7,23.5,8.7z M29.5,10.9C29.5,11,29.5,11,29.5,10.9c0.1,0.1,0.1,0.1,0.2,0.1c0,0,0,0,0-0.1
			C29.6,10.9,29.6,10.9,29.5,10.9z M19.5,11.5C19.5,11.5,19.5,11.5,19.5,11.5c-0.1,0.1-0.1,0.1-0.1,0.2c0,0,0,0,0.1,0
			C19.5,11.6,19.5,11.6,19.5,11.5z M39.2,29.3C39.2,29.3,39.2,29.3,39.2,29.3c-0.1,0.1-0.1,0.1-0.1,0.2c0,0,0,0,0.1,0
			C39.2,29.4,39.2,29.4,39.2,29.3z M38.7,8.4C38.7,8.4,38.7,8.4,38.7,8.4c-0.1,0.1-0.1,0.1-0.1,0.2c0,0,0,0,0.1,0
			C38.7,8.5,38.7,8.5,38.7,8.4z M26.4,8.3C26.4,8.3,26.4,8.3,26.4,8.3c-0.1-0.1-0.1-0.1-0.2-0.1c0,0,0,0,0,0.1
			C26.3,8.3,26.3,8.3,26.4,8.3z M25.3,8.2C25.3,8.1,25.3,8.1,25.3,8.2c-0.1-0.1-0.1-0.1-0.2-0.1c0,0,0,0,0,0.1
			C25.2,8.2,25.2,8.2,25.3,8.2z M26.4,8C26.4,8,26.4,8,26.4,8C26.4,8,26.5,8,26.5,8c0,0,0,0,0-0.1C26.5,8,26.4,8,26.4,8z M35.7,8
			C35.7,8,35.7,8,35.7,8C35.8,8,35.8,8,35.9,8c0,0,0,0,0-0.1C35.8,8,35.8,8,35.7,8z M22.7,4.1C22.7,4.1,22.7,4.1,22.7,4.1
			c-0.1-0.1-0.1-0.1-0.2-0.1c0,0,0,0,0,0.1C22.6,4.1,22.7,4.1,22.7,4.1z M27.4,6.4C27.4,6.4,27.4,6.4,27.4,6.4
			c0.1-0.1,0.1-0.1,0.1-0.2c0,0,0,0-0.1,0C27.4,6.3,27.4,6.4,27.4,6.4z M34.6,9.3C34.6,9.3,34.6,9.3,34.6,9.3
			c-0.1,0.1-0.1,0.1-0.1,0.2c0,0,0,0,0.1,0C34.6,9.4,34.6,9.3,34.6,9.3z M26.5,5.9C26.5,5.9,26.5,5.8,26.5,5.9
			c-0.1-0.1-0.1-0.1-0.2-0.1c0,0,0,0,0,0.1C26.4,5.9,26.5,5.9,26.5,5.9z M22.9,5.8C22.9,5.8,22.9,5.8,22.9,5.8
			C22.9,5.8,23,5.8,23,5.8c0,0,0,0,0-0.1C23,5.8,22.9,5.8,22.9,5.8z M18.8,13.7C18.8,13.7,18.8,13.7,18.8,13.7
			c0.1-0.1,0.1-0.1,0.1-0.2c0,0,0,0-0.1,0C18.8,13.6,18.8,13.6,18.8,13.7z M24.1,9.1C24.1,9.1,24.1,9.1,24.1,9.1
			c-0.1,0.1-0.1,0.1-0.1,0.2c0,0,0,0,0.1,0C24.1,9.2,24.1,9.2,24.1,9.1z M25.2,8.8C25.2,8.8,25.2,8.8,25.2,8.8
			c-0.1,0.1-0.1,0.1-0.1,0.2c0,0,0,0,0.1,0C25.2,8.9,25.2,8.9,25.2,8.8z M37,5.7C37,5.7,37,5.7,37,5.7c0.1,0.1,0.1,0.1,0.2,0.1
			c0,0,0,0,0-0.1C37.1,5.7,37,5.7,37,5.7z M20.4,14.6C20.4,14.6,20.3,14.6,20.4,14.6c-0.1,0.1-0.1,0.1-0.1,0.2c0,0,0,0,0.1,0
			C20.4,14.7,20.4,14.7,20.4,14.6z M29.2,9.5C29.2,9.5,29.2,9.5,29.2,9.5c-0.1,0.1-0.1,0.1-0.1,0.2c0,0,0,0,0.1,0
			C29.2,9.6,29.2,9.6,29.2,9.5z M22.5,4.5C22.5,4.5,22.5,4.5,22.5,4.5c0.1-0.1,0.1-0.1,0.1-0.2c0,0,0,0-0.1,0
			C22.5,4.4,22.5,4.4,22.5,4.5z M36.2,4.1C36.2,4.1,36.2,4.1,36.2,4.1c-0.1,0.1-0.1,0.1-0.1,0.2c0,0,0,0,0.1,0
			C36.2,4.2,36.2,4.1,36.2,4.1z M30.1,3.3C30.1,3.3,30.1,3.3,30.1,3.3c0.1,0.1,0.1,0.1,0.2,0.1c0,0,0,0,0-0.1
			C30.2,3.3,30.2,3.3,30.1,3.3z M34,3.3C34,3.3,34,3.3,34,3.3c0.1-0.1,0.1-0.1,0.1-0.2c0,0,0,0-0.1,0C34,3.2,34,3.2,34,3.3z
			 M23.4,3.1C23.4,3.1,23.4,3.1,23.4,3.1C23.5,3.1,23.5,3,23.5,3c0,0,0,0-0.1,0C23.4,3,23.4,3.1,23.4,3.1z M32.9,3C33,3,33,3,32.9,3
			C33,2.9,33,2.8,33,2.8c0,0,0,0-0.1,0C32.9,2.8,32.9,2.9,32.9,3z M26,2.6C26,2.6,26,2.6,26,2.6c-0.1-0.1-0.1-0.1-0.2-0.1
			c0,0,0,0,0,0.1C25.9,2.6,25.9,2.6,26,2.6z"/>
		<path d="M19,5.4c-0.1,0-0.2-0.1-0.3,0.1c0,0.1-0.2,0.2-0.3,0.3c0,0,0.1,0.1,0.1,0.1c0,0.1-0.1,0.1-0.2,0.2
			c0.1,0.1,0.2,0.2,0.2,0.4c0.1-0.1,0.1-0.1,0.2-0.2c0.1,0.1,0.1,0.3,0.2,0.4c0,0-0.1,0.1-0.1,0.1c0.4,0.4,0.4,0.9,0.1,1.3
			c-0.1,0.1-0.2,0.2-0.2,0.4c0,0.2,0,0.3,0.1,0.5c0,0-0.1,0-0.2,0.1c0,0.1,0.1,0.1,0.1,0.2c-0.1,0.2-0.2,0.4-0.4,0.6
			c-0.1,0.2-0.2,0.4-0.4,0.5c-0.2,0.1-0.3,0.2-0.4,0.4c-0.3-0.1-0.2,0.4-0.5,0.3c0,0-0.2,0.1-0.2,0.2c0,0.3-0.2,0.4-0.3,0.6
			c-0.1,0.2-0.1,0.5-0.2,0.7c-0.1,0.3-0.4,0.5-0.4,0.7c-0.1,0.3-0.1,0.5-0.3,0.7c-0.3,0.2-0.3,0.5-0.3,0.9c-0.2,0.8-0.2,1.6-0.8,2.3
			c0.1,0.1,0.1,0.1,0.2,0.2c-0.1,0-0.1,0.1-0.3,0.1c-0.1,0.2-0.1,0.4-0.2,0.7c-0.1,0.5-0.3,0.9-0.5,1.3c-0.1,0.2-0.2,0.4-0.2,0.7
			c0.1,0.4-0.1,0.7-0.3,1c0.2,0.2,0,0.4,0,0.6c0,0.2,0,0.4,0,0.6c-0.6,0.7-0.5,1.7-0.8,2.5c0,0.1,0.1,0.3,0.1,0.4
			c-0.1,0.4-0.2,0.7-0.3,1.2c0,0-0.1,0.1-0.2,0.2c0.1,0,0.2,0.1,0.3,0.1c0,0.2-0.1,0.4-0.1,0.5c0.1,0.2,0.1,0.3,0.1,0.5
			c0,0.2,0,0.4,0,0.5c0.1,0.3,0.2,0.5,0.3,0.6c0.2,0.3,0.3,0.5,0.5,0.8c0.1,0.2,0.3,0.4,0.4,0.5c0.1,0.2-0.1,0.4-0.1,0.5
			c0.2,0.2-0.1,0.4-0.1,0.5c-0.1,0-0.2,0-0.3-0.1c-0.2-0.3-0.4-0.3-0.8-0.2c0,0.2,0,0.3,0,0.6c0.1,0,0.3,0.1,0.5,0.1
			c-0.3,0.1-0.5,0.2-0.7,0.3c0.2,0.1,0.4,0.2,0.5,0.3c-0.1,0.3-0.3,0.6-0.5,0.9c-0.1,0.2-0.2,0.3-0.2,0.5c0,0.4,0,0.8,0,1.2
			c0,0.2,0.1,0.4-0.1,0.6c-0.1,0-0.1,0.2,0,0.3c0.2,0.2,0.1,0.4,0.1,0.6c0,0.7,0.1,1.3-0.1,2c-0.1,0.4-0.2,0.7,0,1.1
			c0.1,0.3-0.1,0.6-0.3,0.9c0.2,0.6,0.2,1.1,0,1.7c0.3,0.6-0.1,1.1-0.1,1.7c-0.1,0-0.3,0-0.4,0c0-0.1,0-0.2,0-0.2c0,0-0.1,0-0.1,0
			c-0.5,0.2-0.8,0-0.8-0.5c0-0.1-0.1-0.2-0.1-0.2c0-0.5-0.3-0.9-0.1-1.4c-0.3-0.9-0.1-1.8-0.1-2.7c0-0.9,0-1.8,0-2.8
			c0-0.2-0.1-0.5-0.1-0.8c0.5-0.7-0.2-1.4-0.2-2.1c0.1-0.1,0.2-0.2,0.3-0.3c0-0.3,0-0.5,0-0.8c0-0.3,0-0.5,0.1-0.8
			c-0.3-0.2,0.2-0.4,0.1-0.7c-0.1-0.2,0.3-0.5,0-0.7c0.2-0.2,0.3-0.5,0.5-0.7c-0.2-0.3-0.2-0.3,0.1-0.6c0.2,0.1,0.4,0.1,0.7,0.2
			c0,0,0-0.1,0-0.1c-0.1,0-0.2-0.1-0.3-0.2c0.1-0.1,0.1-0.2,0.2-0.3c0,0-0.1-0.1-0.2,0c-0.1,0.1-0.3,0.2-0.4,0.2
			c0.1-0.2,0-0.5,0.4-0.6c0.1-0.2,0.2-0.4,0.2-0.7c0.1-0.1,0.3-0.2,0.5-0.3c0-0.1,0-0.3,0-0.4c-0.4-0.1-0.4,0.4-0.6,0.5
			c-0.3,0.2-0.1,0.5-0.2,0.7c-0.1,0-0.1,0-0.3,0c0.2-0.8,0.4-1.6,0.7-2.4c0,0-0.1-0.1-0.1-0.1c0.1-0.3,0.2-0.6,0.3-0.9
			c0.1-0.3,0.1-0.6,0.1-0.9c0.1-0.4,0.1-0.7,0.2-1.1c0.1-0.4,0.2-0.8,0.3-1.2c0,0,0.1-0.1,0.2-0.1c0.1,0.1,0.1,0.2,0.2,0.3
			c0.1-0.1,0.2-0.1,0.3-0.3c-0.2-0.2-0.4-0.3-0.6-0.4c0-0.3,0.2-0.7,0.2-1c0.1-0.4,0.1-0.7,0.1-1c0.2-0.3,0.3-0.6,0.5-0.9
			c0.2,0,0.5-0.1,0.7,0.1c0.2-0.1,0.4-0.2,0.6-0.4c-0.3,0-0.6,0-0.8,0c-0.3-0.4-0.3-0.6-0.1-0.9c0.2-0.3,0.5-0.6,0.8-1
			c0-0.1,0-0.4,0-0.6c0-0.2,0-0.4,0-0.6c0-0.2,0.1-0.3,0.2-0.5c0.3-0.5,0.2-1.1,0.5-1.6c0,0,0-0.1,0-0.1c0.5-0.4,0.6-1,0.8-1.5
			c0.3-0.6,0.7-1.2,0.9-1.9c0-0.1,0-0.2,0.1-0.2c0.4-0.3,0.5-0.9,0.9-1.3c0.1-0.1,0.1-0.2,0.1-0.2c0.2-0.2,0.3-0.4,0.4-0.7
			c0.2-0.4,0.5-0.7,0.7-1C18.6,4.3,19,4.2,19.1,4c0-0.3,0-0.4-0.1-0.6c0.5,0,0.4,0.3,0.5,0.6c0.1,0,0.2,0.1,0.4,0.2
			C20,4,20,3.9,20.1,3.7c-0.2,0-0.3,0-0.6-0.1c0.5-0.2,0.6-0.7,1.1-0.9c0.4-0.1,0.6-0.5,1.1-0.6c0.1,0.1,0.2,0.3,0.3,0.4
			c-0.2,0.1-0.4,0.2-0.6,0.4c0.1,0.1,0.1,0.1,0.1,0.2c0,0.1-0.1,0.2-0.1,0.2c-0.3,0.1-0.4-0.3-0.7-0.4c0,0.2-0.1,0.3-0.1,0.5
			c-0.1,0-0.1,0-0.2,0.1c-0.2,0.4,0.2,0.5,0.3,0.8c-0.1,0-0.2,0-0.4,0.1c0,0,0,0,0.1,0c0-0.1,0-0.2-0.1-0.3c0,0-0.1,0-0.1,0
			c0,0.1,0,0.2,0.1,0.3c0.1,0.1,0.1,0.2,0.1,0.4c-0.2-0.1-0.3-0.1-0.4-0.2C20,4.8,19.9,4.9,19.8,5c0,0.4,0.1,0.7,0.1,0.8
			c-0.2,0.2-0.3,0.3-0.4,0.5c0-0.2,0-0.3,0-0.4c0.1,0,0.1,0,0.2-0.1c0,0,0-0.1,0-0.1c-0.1-0.2-0.2-0.4-0.3-0.6
			c-0.2-0.1-0.5-0.4-0.8,0C18.7,5.3,19,5,19,5.4z M11.2,34.6C11.2,34.6,11.2,34.6,11.2,34.6c0,0.1,0,0.1,0.1,0.2c0,0,0,0,0,0
			C11.3,34.7,11.3,34.6,11.2,34.6c0-0.1,0-0.1,0-0.2c-0.2-0.1-0.4-0.1-0.6-0.2c-0.1,0.1-0.1,0.1-0.2,0.2
			C10.7,34.5,11,34.5,11.2,34.6z M19.9,4.4c0,0,0-0.1,0-0.1c-0.1,0-0.2,0-0.3,0.1c0,0,0,0.1,0,0.1C19.8,4.4,19.8,4.4,19.9,4.4z
			 M11.5,28.3c0,0,0.1,0,0.1,0c0-0.1,0-0.2-0.1-0.3c0,0-0.1,0-0.1,0C11.5,28.1,11.5,28.2,11.5,28.3z M11.3,27.2
			C11.3,27.2,11.3,27.2,11.3,27.2c-0.1,0.1-0.1,0.1-0.1,0.2c0,0,0,0,0.1,0C11.3,27.3,11.3,27.3,11.3,27.2z"/>
		<path d="M13.3,31.1c0.1,0.2,0.1,0.3,0.1,0.4c0.1,0.2,0.3,0.3,0.4,0.4c-0.1,0.4,0.1,0.6,0.2,0.9c0.1,0.2,0.2,0.5,0.5,0.7
			c0.5,0.4,0.6,1,0.9,1.4c0.1,0.1,0.1,0.2,0.1,0.3c0,0,0,0.1-0.1,0.1c0.1,0.1,0.3,0.2,0.4,0.3c0.1,0.6,0.2,1.2,0.5,1.7
			c0.1,0.2,0.1,0.4,0,0.6c0,0.2,0.1,0.4,0.1,0.6c0.1,0.6,0.1,1.2,0.3,1.7c0.3,0.7,0.3,1.5,0.5,2.2c0.1,0.3,0,0.8-0.2,1.1
			c-0.1,0.2,0.2,0.4,0,0.6c-0.1,0.1-0.1,0.5-0.1,0.7c0,0.2,0,0.4,0.1,0.6c0.1,0.2-0.1,0.5,0.1,0.6c0,0.3-0.1,0.6-0.1,0.8
			c0.3,0.1,0,0.3,0,0.5c0.1,0.2,0.1,0.5,0,0.7c-0.1,0.2,0,0.4-0.1,0.7c-0.1,0.2-0.1,0.5-0.2,0.7c-0.1,0.2-0.2,0.4-0.3,0.6
			c0,0-0.1,0.1-0.1,0.1c-0.2-0.1-0.4-0.1-0.6-0.2c-0.1-0.3-0.1-0.5-0.2-0.9c0,0-0.1,0-0.2-0.1c-0.3-0.4-0.2-0.9-0.4-1.3
			C15,47.5,15,47,15,46.4c0.1-0.2,0.4-0.1,0.7-0.2c-0.1-0.1-0.1-0.2-0.2-0.2c-0.1,0-0.2-0.1-0.4-0.1c-0.2-0.4-0.2-0.9-0.2-1.4
			c0-0.4,0-0.9-0.3-1.3c0-0.1,0-0.2-0.1-0.2c-0.4-0.3-0.5-0.8-0.9-1.1c-0.3-0.3-1-1.4-1-1.8c0-0.3-0.1-0.7,0.1-1
			c0.2-0.3,0-0.8,0.2-1.1c-0.1-0.7,0.3-1.4,0.2-2.2c0.1,0,0.2,0,0.3-0.1c-0.1-0.4-0.2-0.7,0-1.1c0.1-0.1,0-0.4,0-0.6
			c0-0.2,0.2-0.4,0.1-0.5c-0.2-0.3-0.1-0.7-0.1-0.9c-0.2-0.4-0.4-0.8-0.6-1.2C13,31.4,13.1,31.3,13.3,31.1z"/>
		<path d="M12.8,60.8c-0.2,0.2-0.3,0.3-0.6,0.5c0-0.4,0-0.7-0.1-1.1c-0.1,0.2-0.1,0.3-0.2,0.4c0-0.1-0.1-0.2-0.1-0.3
			c-0.1,0-0.2,0-0.4,0c-0.1-0.2-0.1-0.4-0.2-0.6c0-0.1,0.1-0.2,0.2-0.3c-0.1,0-0.2-0.1-0.4-0.1c0.1-0.1,0.1-0.2,0.2-0.4
			c-0.1-0.1-0.2-0.3-0.3-0.4c0.1-0.3,0.2-0.6,0.2-1c0.3,0,0.4,0.3,0.6,0.4c-0.1,0.1-0.1,0.2-0.2,0.3c0.1,0.1,0.2,0.2,0.4,0.3
			c0-0.3,0.1-0.5,0.1-0.6c-0.2-0.2-0.4-0.4-0.5-0.6c-0.1,0-0.2,0-0.3,0c0,0-0.1-0.1-0.1-0.1c-0.1-0.3-0.1-0.6-0.1-0.9
			c-0.1-0.2-0.2-0.4-0.2-0.6c0-0.2,0-0.4,0-0.6c0-0.1-0.1-0.2-0.2-0.3c0.1-0.1,0.1-0.2,0.2-0.3c-0.1-0.1-0.1-0.2-0.1-0.3
			c0.1-0.2,0.1-0.4,0.2-0.7c-0.2,0.1-0.2,0.2-0.3,0.2c0,0,0,0,0,0c0-0.5-0.4-0.9-0.1-1.3c0,0,0,0,0.1-0.1c-0.1-0.1-0.2-0.2-0.3-0.2
			c0-0.2,0-0.3,0-0.4c0.1,0,0.2-0.1,0.3-0.1c-0.2-0.1-0.3-0.2-0.5-0.4c0-0.1,0-0.2,0-0.4c0.2,0.1,0.4,0.2,0.6,0.2
			c0.2,0,0.4-0.2,0.6-0.3c0-0.2,0-0.4,0-0.5c-0.2-0.2-0.4,0-0.6,0.1c-0.1,0-0.1-0.1-0.2-0.1c-0.1,0.1-0.2,0.3-0.3,0.4
			c-0.3-0.2,0.3-0.5,0-0.7c-0.1-1.1-0.2-2.1-0.1-3.3c0.1,0.1,0.1,0.1,0.3,0.2c-0.1-0.2-0.1-0.4-0.2-0.6c0,0,0.1-0.1,0.1,0
			c0.3,0.3,0.7,0.3,1,0.6c0,0,0.1,0,0.1-0.1c0-0.1-0.1-0.1-0.2-0.2c0.2,0,0.3,0,0.4,0c0.1,0.2,0.2,0.4,0.2,0.7
			c0,0.1-0.1,0.1-0.2,0.2c0,0.1,0.1,0.3,0.1,0.4c0,0.1-0.1,0.3-0.1,0.4c0.4,0.5,0.3,1.1,0.3,1.8c-0.1,0-0.2,0.1-0.3,0.1
			c0,0.1,0.1,0.1,0.1,0.2c0,0-0.1,0.1-0.1,0.1c0.3,0.1,0.3,0.5,0.4,0.8c0,0-0.1,0.1-0.2,0.2c0.1,0.2,0.2,0.4,0.3,0.6
			c-0.4,0.1,0.1,0.4-0.1,0.6c-0.1,0.1,0,0.4,0.1,0.7c0.1,0.2,0.2,0.4,0.1,0.7c0,0.2,0,0.5,0.1,0.8c-0.1,0.2-0.5,0.6-0.1,1
			c0,0.4,0,0.9,0,1.3c0,0.3,0,0.6,0.1,1c0.1,0.2-0.1,0.6-0.1,0.9c0.1,0.1,0.2,0.2,0.3,0.3c-0.1,0.1-0.1,0.1-0.2,0.2
			c0.1,0.1,0.1,0.2,0.2,0.3c0.1,0.1,0.1,0.2,0.2,0.3c-0.1,0.1-0.2,0.1-0.3,0.1c-0.1,0,0.1,0.3,0.4,0.5
			C12.9,60.6,12.9,60.7,12.8,60.8z M11.7,59.3c0.1,0.3,0.2,0.4,0.3,0.6c0.1-0.2,0.2-0.4,0.3-0.6c0,0,0,0-0.1-0.1
			C12.1,59.4,12,59.4,11.7,59.3z M11,51.2c-0.1,0-0.2,0.1-0.3,0.1C10.9,51.5,11,51.5,11,51.2z M11.7,57.2c0,0,0.1,0,0.1,0
			c0-0.1,0-0.2-0.1-0.3c0,0,0,0-0.1,0C11.7,57,11.7,57.1,11.7,57.2z M11.2,51.5c0,0,0.1,0,0.1,0c0-0.1,0-0.2-0.1-0.3c0,0,0,0-0.1,0
			C11.2,51.3,11.2,51.4,11.2,51.5z M10.8,52.7c0,0,0,0.1,0,0.1c0.1,0,0.2,0,0.3-0.1c0,0,0-0.1,0-0.1C11,52.7,10.9,52.7,10.8,52.7z
			 M11.5,58.9C11.6,58.9,11.6,58.9,11.5,58.9c0.1-0.1,0.1-0.1,0.1-0.2c0,0,0,0-0.1,0C11.5,58.8,11.5,58.8,11.5,58.9z"/>
		<path d="M13.9,73.7c0-0.2-0.3-0.1-0.3-0.4c-0.1-0.3-0.2-0.7-0.2-1c-0.1-0.5-0.2-0.9-0.5-1.4c0.2-1.3-0.2-2.6-0.5-3.9
			c0.1-0.1,0.1-0.1,0.2-0.2c-0.4-0.3-0.1-1-0.6-1.3c0-0.1,0.1-0.2,0.1-0.2c0-0.1-0.1-0.1-0.1-0.2c0.1-0.1,0.1-0.1,0.2-0.2
			c0.1,0.1,0.2,0.2,0.4,0.3c0.1-0.1,0.2-0.1,0.2-0.2c-0.1-0.1-0.3-0.3-0.4-0.5c0,0,0.1-0.1,0.1-0.1c0-0.1,0-0.2,0-0.4
			c-0.1,0-0.2,0-0.2-0.1c-0.1-0.4-0.1-0.8-0.2-1c0.2-0.3,0.4-0.6,0.5-0.8c-0.1-0.1-0.2-0.2-0.3-0.3c-0.1,0.3-0.2,0.5-0.3,0.8
			c-0.1-0.3-0.2-0.5-0.4-0.8c0.1-0.1,0.1-0.2,0.3-0.3c0.1,0.1,0.2,0.1,0.3,0.2c0.2-0.1,0.5-0.2,0.8-0.3c0,0.2-0.1,0.3-0.1,0.5
			c0.1,0,0.2,0.1,0.3,0.2c-0.1,0.3-0.2,0.4-0.2,0.6c0,0.2,0.1,0.4,0.1,0.5c-0.1,0.1-0.2,0.1-0.4,0.2c0.2,0.2,0.4,0.4,0.5,0.6
			c0,0-0.1,0.1-0.1,0.1c0,0.2,0.1,0.3,0.1,0.5c0,0.5,0.1,1.1,0.3,1.6c0.1,0.2-0.1,0.5-0.1,0.8c0,0,0.1,0,0.3,0.1
			c-0.1,0.1-0.1,0.1-0.2,0.2c0.3,0.4,0,1.1,0.4,1.4c0,0.5,0.1,0.9,0.1,1.3c0,0,0,0-0.1,0.1c0.1,0.1,0.2,0.2,0.2,0.3
			c0.1,0.3,0.1,0.6,0.2,0.9c-0.2,0.4-0.8,0.8-0.2,1.3c0-0.1,0.1-0.2,0.2-0.4c0,0.3,0,0.5,0.1,0.7c0.1,0,0.2,0,0.4,0
			c0,0.1,0.1,0.1,0,0.2c-0.1,0.2-0.2,0.5-0.3,0.7C14.2,73.9,14,73.8,13.9,73.7z M12.8,64.6C12.8,64.6,12.8,64.6,12.8,64.6
			c0,0.1,0,0.1,0.1,0.2c0,0,0,0,0,0C12.9,64.6,12.9,64.6,12.8,64.6C12.8,64.6,12.8,64.6,12.8,64.6c0,0-0.1-0.1-0.1-0.1c0,0,0,0,0,0
			C12.7,64.5,12.7,64.6,12.8,64.6z M12.6,62.6C12.6,62.6,12.6,62.6,12.6,62.6c0.1-0.1,0.1-0.2,0.1-0.3c0,0-0.1,0-0.1,0
			C12.6,62.4,12.6,62.5,12.6,62.6z"/>
		<path d="M14.6,75c0.2,0.1,0.4,0.1,0.6,0.2c0,0.1,0,0.2,0.1,0.4c0.1,0,0.1,0,0.2,0.1c0,0,0.1,0,0.1,0.1c-0.1,0.6,0.4,1,0.3,1.6
			c-0.1,0.3-0.1,0.6-0.3,0.9c-0.1-0.1-0.3-0.1-0.4-0.2c-0.1,0-0.1,0.1-0.3,0.2c0-0.2,0.1-0.4,0.1-0.6c-0.3-0.1-0.4-0.4-0.6-0.8
			c0.2,0,0.4,0,0.5,0c0,0,0,0,0,0c0,0,0.1,0.1,0.1,0.1c0,0,0,0,0,0c0,0-0.1-0.1-0.1-0.1c-0.1-0.3-0.4-0.3-0.6-0.6
			C14.3,75.8,14.6,75.5,14.6,75z M15.2,77.3C15.2,77.3,15.2,77.3,15.2,77.3c-0.1-0.1-0.2-0.1-0.3-0.1c0,0,0,0.1,0,0.1
			C15,77.3,15.1,77.3,15.2,77.3z"/>
		<path d="M21.8,7.1c0-0.1-0.1-0.2-0.1-0.4c-0.1,0.1-0.2,0.1-0.3,0.1c-0.1,0-0.1,0.1-0.2,0.2c0.1,0.1,0.2,0.3,0.3,0.4
			c-0.2,0.1-0.4,0.3-0.6,0.5c0.2-0.6,0.2-0.6-0.1-1.3c0.1,0,0.2-0.1,0.3-0.1c0,0,0,0.1,0.1,0.3c0.1-0.2,0.2-0.4,0.3-0.6
			c0.1,0,0.2,0,0.3,0C22,6.5,22.3,6.8,21.8,7.1z"/>
		<path d="M14.6,75.1c-0.2-0.3-0.4-0.6-0.6-0.9c0,0,0.1-0.1,0.1-0.1c0.1,0,0.2,0.1,0.2,0.1c0.1,0,0.2-0.1,0.3-0.1
			C14.6,74.5,14.6,74.8,14.6,75.1z"/>
		<path d="M10.9,45.3c0.1-0.1,0.3-0.2,0.4-0.4c0,0,0.1,0.1,0.2,0.2C11.6,45.2,11.3,45.3,10.9,45.3z"/>
		<path d="M20.1,17.5c-0.1,0-0.2,0-0.3,0c0-0.2,0-0.4,0-0.6c0,0,0.1,0,0.1-0.1c0,0.1,0,0.3,0,0.4c0.1-0.1,0.1-0.1,0.2-0.2
			c0,0.1-0.1,0.1-0.1,0.2C20,17.3,20,17.4,20.1,17.5z"/>
		<path d="M10,44.1c0,0.2,0,0.4,0,0.6c0,0-0.1,0-0.1,0c0-0.2,0-0.4,0-0.6C9.9,44.1,9.9,44.1,10,44.1z"/>
		<path d="M19.1,5.3c0.1,0.1,0.2,0.2,0.3,0.3c-0.1,0.1-0.1,0.2-0.3,0.3C19,5.7,19.1,5.5,19.1,5.3z"/>
		<path d="M13.9,73.6c0,0.1,0,0.2,0,0.3c-0.2-0.1-0.3-0.1-0.5-0.3C13.6,73.7,13.7,73.7,13.9,73.6z"/>
		<path d="M21.7,3.9c0.1,0,0.2,0,0.3,0c0,0.1,0,0.1,0,0.2C21.8,4.2,21.6,4.2,21.7,3.9z"/>
		<path d="M21.5,3.4c0.1,0,0.2,0,0.3,0c0.1,0.3,0,0.3-0.3,0.3C21.5,3.6,21.5,3.5,21.5,3.4z"/>
		<path d="M20.8,7.7c0,0.1-0.1,0.2-0.2,0.4C20.6,7.7,20.6,7.7,20.8,7.7z"/>
		<path d="M24.5,7.3c0.1,0.3-0.1,0.3-0.4,0.2C24.3,7.4,24.4,7.4,24.5,7.3z"/>
		<path d="M14.2,75.1c0,0.1,0,0.3,0,0.4c0,0-0.1,0-0.1,0c0-0.1,0-0.3,0-0.4C14.1,75.1,14.1,75.1,14.2,75.1z"/>
		<path d="M22.4,2.7c0,0.1,0,0.2,0,0.3c0,0,0,0-0.1,0c0-0.1,0-0.2-0.1-0.3C22.3,2.7,22.4,2.7,22.4,2.7z"/>
		<path d="M21.2,5.5c0-0.1,0-0.2,0-0.3c0,0,0,0,0.1,0c0,0.1,0,0.2,0.1,0.3C21.3,5.5,21.2,5.5,21.2,5.5z"/>
		<path d="M11.4,45.8c0-0.1,0-0.2,0-0.3c0,0,0.1,0,0.1,0c0,0.1,0,0.2,0.1,0.3C11.5,45.8,11.4,45.8,11.4,45.8z"/>
		<path d="M11.5,60.8c0-0.1,0-0.2,0-0.3c0,0,0.1,0,0.1,0c0,0.1,0,0.2,0.1,0.3C11.6,60.8,11.5,60.8,11.5,60.8z"/>
		<ellipse transform="matrix(1.441858e-02 -0.9999 0.9999 1.441858e-02 20.2383 25.0674)" cx="22.8" cy="2.3" rx="0.1" ry="0"/>
		<ellipse transform="matrix(1.441858e-02 -0.9999 0.9999 1.441858e-02 0.2959 37.297)" cx="19.1" cy="18.5" rx="0" ry="0.1"/>
		<ellipse transform="matrix(1.441858e-02 -0.9999 0.9999 1.441858e-02 -0.3074 36.9788)" cx="18.6" cy="18.6" rx="0.1" ry="0"/>
		<path d="M34.2,30.1c0,0,0.1,0.1,0.1,0.1c0,0,0,0,0,0C34.2,30.3,34.2,30.2,34.2,30.1C34.2,30.2,34.2,30.2,34.2,30.1z"/>
		<ellipse transform="matrix(1.441858e-02 -0.9999 0.9999 1.441858e-02 12.4062 27.4912)" cx="20.1" cy="7.5" rx="0" ry="0.1"/>
		<path d="M10.4,45c0,0,0.1-0.1,0.1-0.1c0,0,0,0,0,0C10.6,45,10.5,45,10.4,45C10.5,45,10.5,45,10.4,45z"/>
		<ellipse transform="matrix(1.441858e-02 -0.9999 0.9999 1.441858e-02 -35.3106 54.3741)" cx="9.9" cy="45.1" rx="0.1" ry="0"/>
		<path d="M10.5,45c0,0-0.1,0.1-0.1,0.1c0,0,0,0,0,0C10.4,45.1,10.4,45,10.5,45C10.5,45,10.5,45,10.5,45z"/>
		<ellipse transform="matrix(1.441858e-02 -0.9999 0.9999 1.441858e-02 -34.7535 56.8268)" cx="11.4" cy="46" rx="0" ry="0.1"/>
		<ellipse transform="matrix(1.441858e-02 -0.9999 0.9999 1.441858e-02 -39.7183 60.6855)" cx="10.9" cy="50.5" rx="0" ry="0.1"/>
		<ellipse transform="matrix(1.441858e-02 -0.9999 0.9999 1.441858e-02 -49.8696 71.6014)" cx="11.4" cy="61.1" rx="0" ry="0.1"/>
		<path d="M11.9,65.5c0,0-0.1,0.1-0.1,0.1c0,0,0,0,0,0C11.8,65.5,11.8,65.5,11.9,65.5C11.9,65.5,11.9,65.5,11.9,65.5z"/>
		<ellipse transform="matrix(1.441858e-02 -0.9999 0.9999 1.441858e-02 14.587 25.4028)" cx="20.2" cy="5.3" rx="0.1" ry="0"/>
		<ellipse transform="matrix(1.441858e-02 -0.9999 0.9999 1.441858e-02 -59.2116 87.4161)" cx="14.7" cy="73.7" rx="0.1" ry="0"/>
		<circle cx="25.7" cy="9.9" r="0.2"/>
		<path d="M0.9,79.9c-0.2-0.2-0.3-0.4-0.5-0.7c0.5,0,0.8,0,1.3,0C1.5,79,1.4,79,1.2,78.9c0.1,0,0.3-0.1,0.4-0.1
			c0-0.1,0.1-0.3,0.1-0.4c0.2,0,0.4-0.1,0.7-0.1c0.1,0,0.2,0.1,0.3,0.2c0.1-0.1,0.1-0.2,0.2-0.4c0.1,0.1,0.3,0.2,0.5,0.3
			c0.1-0.1,0.3-0.2,0.5-0.3c0.4,0.1,0.7,0.2,1.1,0.4c0,0.4-0.4,0.4-0.6,0.6c-0.1-0.1-0.2-0.2-0.3-0.2c-0.1,0.1-0.2,0.2-0.4,0.4
			c0.3,0.1,0.5,0.1,0.7,0.2c0.3-0.2,0.5-0.4,0.7-0.6c0-0.1,0-0.3,0-0.4c0.1,0,0.1-0.1,0.2-0.1c0.3,0,0.7,0,1-0.1
			c0.2,0,0.5-0.2,0.7-0.2c0.2,0,0.5,0,0.7,0c0.1,0,0.3-0.1,0.4-0.2c0.1,0.1,0.2,0.2,0.3,0.2c0.1-0.1,0.2-0.1,0.3-0.1
			C9,78,9.2,78,9.6,78.2c-0.1-0.2-0.2-0.3-0.2-0.3c0,0,0-0.1,0-0.1c0.5,0.1,1.1-0.4,1.6,0c0,0,0,0,0.1,0.1c0.1-0.1,0.2-0.3,0.3-0.4
			c0.2,0,0.3,0,0.5,0c0,0.1,0,0.2,0.1,0.4c0.2-0.2,0.3-0.3,0.5-0.5c0.1,0,0.2,0,0.4,0c-0.1,0.3-0.2,0.5-0.2,0.7
			c0,0.2,0.2,0.5,0.3,0.7c0.2,0,0.4,0,0.6,0.1c0.2-0.2,0-0.5-0.1-0.7c0-0.1,0.1-0.1,0.2-0.3c-0.1-0.1-0.3-0.3-0.5-0.4
			c0.3-0.3,0.5,0.3,0.8,0c1.3,0,2.5,0,3.9,0.2c-0.1,0.1-0.1,0.2-0.3,0.3c0.3-0.1,0.5-0.1,0.7-0.2c0,0.1,0,0.1,0,0.1
			c-0.4,0.3-0.4,0.8-0.8,1.1c0,0,0,0.1,0.1,0.2c0.1-0.1,0.1-0.1,0.3-0.2c0,0.2,0,0.3,0,0.5c-0.3,0.1-0.5,0.1-0.8,0.2
			c-0.1-0.1-0.1-0.1-0.2-0.2c-0.1,0-0.3,0.1-0.5,0.1c-0.2,0-0.3-0.1-0.5-0.2c-0.6,0.4-1.4,0.3-2.1,0.2c0-0.1-0.1-0.2-0.1-0.3
			c-0.1,0-0.2,0.1-0.3,0.1c0-0.1-0.1-0.1-0.1-0.2c-0.2,0.4-0.6,0.3-1,0.4c0,0-0.1-0.1-0.2-0.2c-0.2,0.1-0.5,0.2-0.7,0.3
			c-0.1-0.5-0.4,0.1-0.7-0.1c-0.2-0.1-0.5,0-0.8,0c-0.3,0-0.5,0.2-0.8,0.1c-0.3,0-0.6,0-1,0c-0.3-0.1-0.6-0.6-1.1-0.2
			c-0.5,0-1-0.1-1.5-0.1c-0.4,0-0.7-0.1-1.1,0c-0.3,0.1-0.6-0.1-1-0.2c-0.1,0.1-0.2,0.2-0.3,0.4c-0.1-0.1-0.2-0.2-0.2-0.3
			c-0.1,0.1-0.2,0.1-0.4,0.2c-0.1,0.1-0.2,0.1-0.3,0.2c0-0.2-0.1-0.3-0.1-0.4c-0.1-0.1-0.4,0.1-0.6,0.5C1.1,79.9,1,79.9,0.9,79.9z
			 M2.7,78.6c-0.3,0.1-0.5,0.2-0.8,0.3c0.3,0.1,0.5,0.3,0.7,0.3c0,0,0,0,0.1-0.1C2.7,79.1,2.7,78.9,2.7,78.6z M12.3,78.5
			c0-0.1-0.1-0.3-0.1-0.4C12,78.4,12,78.6,12.3,78.5z M5.3,78.8c0,0.1,0,0.1,0,0.2c0.1,0,0.2,0,0.3,0c0,0,0-0.1,0-0.1
			C5.5,78.8,5.4,78.8,5.3,78.8z M12,78.7c0,0.1,0,0.1,0,0.2c0.1,0,0.2,0,0.3,0c0,0,0-0.1,0-0.1C12.2,78.7,12.1,78.7,12,78.7z
			 M10.5,78.2c-0.1,0-0.1,0-0.2,0c0,0.1,0,0.2,0,0.3c0,0,0.1,0,0.1,0C10.5,78.4,10.5,78.3,10.5,78.2z M3.3,78.5
			C3.3,78.5,3.3,78.5,3.3,78.5c0.1,0.1,0.1,0.1,0.2,0.1c0,0,0,0,0-0.1C3.4,78.5,3.3,78.5,3.3,78.5z"/>
		<path d="M32.2,79c-0.3-0.1-0.2,0.3-0.5,0.3c-0.4,0-0.8,0.1-1.2,0.1c-0.5,0-1.1,0.1-1.7,0.3c-1.5-0.4-3.1-0.2-4.7,0
			c-0.1-0.1-0.1-0.1-0.2-0.3c-0.5,0.4-1.2-0.1-1.6,0.5c-0.1-0.1-0.2-0.1-0.3-0.2c-0.1,0-0.1,0.1-0.2,0.1c-0.1-0.1-0.1-0.2-0.2-0.3
			c0.1-0.1,0.3-0.2,0.5-0.4c-0.1-0.1-0.1-0.2-0.2-0.3c-0.2,0.1-0.4,0.3-0.6,0.4c0,0-0.1-0.1-0.1-0.1c-0.1,0-0.3,0-0.4,0
			c0,0.1-0.1,0.2-0.1,0.3c-0.4,0-0.9,0-1.3,0c-0.3-0.3-0.6-0.5-0.9-0.8c-0.1,0.1-0.3,0.2-0.4,0.3c0.3,0.2,0.6,0.3,0.9,0.5
			c-0.3,0.1-0.6,0.2-1,0.3c-0.1-0.1-0.2-0.2-0.3-0.4c0.1-0.1,0.2-0.2,0.2-0.3c-0.1-0.3-0.1-0.6-0.2-1c0.2,0.1,0.3,0.1,0.5,0.2
			c0-0.1,0.2-0.2,0.3-0.3c0.3,0.2,0.5,0.3,0.7,0.4c0.2,0,0.4,0,0.7-0.1c0,0.1,0.1,0.3,0.1,0.5c0.3-0.2,0.5-0.3,0.8-0.5
			c0,0,0.1,0.1,0.1,0.1c0.2,0,0.4-0.1,0.6,0c0.6,0.1,1.3,0,1.9,0c0.3,0,0.6,0.2,0.9,0.3c0-0.1,0.1-0.1,0.2-0.3
			c0.1,0.1,0.1,0.2,0.2,0.2c0.6-0.3,1.3,0.2,1.8-0.2c0.5,0,1,0.1,1.6,0.1c0,0,0,0.1,0.1,0.1c0.1-0.1,0.2-0.2,0.3-0.2
			c0.4,0,0.7-0.1,1.1-0.1c0.4,0.4,0.8,1.1,1.5,0.5c-0.1-0.1-0.2-0.1-0.4-0.3c0.3,0,0.5,0,0.8,0c0-0.1,0.1-0.3,0.1-0.4
			c0.1,0,0.2,0,0.2,0c0.3,0.2,0.5,0.3,0.8,0.5C32.5,78.7,32.3,78.8,32.2,79z M21.4,78.7C21.4,78.7,21.4,78.7,21.4,78.7
			c0.1,0,0.1,0,0.2-0.1c0,0,0,0,0-0.1C21.5,78.6,21.5,78.6,21.4,78.7C21.5,78.7,21.4,78.7,21.4,78.7c-0.1,0-0.1,0.1-0.2,0.1
			c0,0,0,0,0,0.1C21.4,78.8,21.4,78.7,21.4,78.7z M19.1,78.6C19.1,78.6,19.1,78.6,19.1,78.6c-0.1-0.1-0.2-0.1-0.3-0.1
			c0,0,0,0.1,0,0.1C18.8,78.6,19,78.6,19.1,78.6z"/>
	</g>
</g>
</svg>
